<svg xmlns="http://www.w3.org/2000/svg" viewBox="0 0 48 48"><defs><style>.cls-1{fill:#dc2727;opacity:0.85;}.cls-2{fill:#fff;}</style></defs><g id="Layer_2" data-name="Layer 2"><g id="Layer_1-2" data-name="Layer 1"><path class="cls-1" d="M0,15.58C0,9.36,3.84,3.75,9.88,2.26,20-.22,35.24-2.26,42.75,5.25c6.34,6.34,5.87,18.2,4.08,27.82C45.12,42.24,36.59,48,27.25,48H7.5A7.5,7.5,0,0,1,0,40.5Z"/><path class="cls-2" d="M36.87,33.31l-.12-.23h.08v-.23h-.28l-.44-.66v0h0L35.32,31h.08v-.27h-.24l-.44-.65v0h0L33.93,29H34v-.23h-.28l-.28-.38-.24.38H33V29h0l-.43.69v-.22H32.3v.22h.28l-.76,1.12h-.2V31h0l-1.23,1.81h0L31,31h.2v-.27H31l.12-.42h0v0l.47-1.38v0h.24v-.23h-.2l.16-.42h0v-.19l.44-1.39v.2h.28v-.27h-.24l.12-.43h.12V26h0l.59-1.8h.16v-.27h-.08l.6-1.81H34v-.23h-.12l.56-1.81h.27v-.27h-.2l.16-.42h0v-.12l.44-1.38V18h.24v-.24h-.2l.12-.42h.08v-.27l.59-1.8h.12V15h0l.28-.81.2-.31v0h.28v-.19h.44v.19h.28v-.19H38v.19h.28v-.19h.44v.19h.24v-.19h.47v.19h.24v-.19h.44v.19h.28v-.19h.43v.19h.28v-.19h.44v.19h.28v-.19h.43v.19h.24v-.19H43v.19h.24v-.19h.24l-.4.61H43v.12l-.48.65V15h-.24v.27h.16l-.75,1.11h-.12v.15l-.44.66v-.12H40.8v.27H41l-.75,1.12h-.12v.15l-.44.65v-.15h-.24v.27h.16l-.75,1.12H38.7v.19l-.44.65V21.2H38v.23h.2l-.75,1.11h-.16v.23l-.4.58.4.58h0v.27h.2l.75,1.11H38v.23h.28v-.19l.44.65v.23h.16l.75,1.12h-.2v.27h.24v-.19l.44.65v.23h.16L41,29.43h-.2v.22h.28V29.5l.44.66v.19h.12l.75,1.11h-.16v.27h.24v-.15l.48.65v.15h.12l.6.93Zm-.32-18.73h.28v-.23h-.28Zm.72,0h.28v-.23h-.28Zm.71,0h.28v-.23H38Zm.72,0h.24v-.23H38.7Zm.71,0h.24v-.23h-.24Zm.68,0h.28v-.23h-.28Zm.71,0h.28v-.23H40.8Zm.72,0h.28v-.23h-.28Zm.71,0h.24v-.23h-.24Zm-5.68.7h.28V15h-.28Zm.72,0h.28V15h-.28Zm.71,0h.28V15H38Zm.72,0h.24V15H38.7Zm.71,0h.24V15h-.24Zm.68,0h.28V15h-.28Zm.71,0h.28V15H40.8Zm.72,0h.28V15h-.28ZM35.88,16h.23V15.7h-.23Zm.67,0h.28V15.7h-.28Zm.72,0h.28V15.7h-.28ZM38,16h.28V15.7H38Zm.72,0h.24V15.7H38.7Zm.71,0h.24V15.7h-.24Zm.68,0h.28V15.7h-.28Zm.71,0h.28V15.7H40.8Zm.72,0h.28V15.7h-.28Zm-5.64.69h.23v-.27h-.23Zm.67,0h.28v-.27h-.28Zm.72,0h.28v-.27h-.28Zm.71,0h.28v-.27H38Zm.72,0h.24v-.27H38.7Zm.71,0h.24v-.27h-.24Zm.68,0h.28v-.27h-.28Zm.71,0h.28v-.27H40.8Zm-4.92.69h.23v-.27h-.23Zm.67,0h.28v-.27h-.28Zm.72,0h.28v-.27h-.28Zm.71,0h.28v-.27H38Zm.72,0h.24v-.27H38.7Zm.71,0h.24v-.27h-.24Zm.68,0h.28v-.27h-.28ZM35.88,18h.23v-.24h-.23Zm.67,0h.28v-.24h-.28Zm.72,0h.28v-.24h-.28ZM38,18h.28v-.24H38Zm.72,0h.24v-.24H38.7Zm.71,0h.24v-.24h-.24Zm.68,0h.28v-.24h-.28Zm-4.93.69h.24v-.23h-.24Zm.72,0h.23v-.23h-.23Zm.67,0h.28v-.23h-.28Zm.72,0h.28v-.23h-.28Zm.71,0h.28v-.23H38Zm.72,0h.24v-.23H38.7Zm.71,0h.24v-.23h-.24Zm-4.25.69h.24v-.27h-.24Zm.72,0h.23v-.27h-.23Zm.67,0h.28v-.27h-.28Zm.72,0h.28v-.27h-.28Zm.71,0h.28v-.27H38Zm.72,0h.24v-.27H38.7Zm-3.54.69h.24v-.27h-.24Zm.72,0h.23v-.27h-.23Zm.67,0h.28v-.27h-.28Zm.72,0h.28v-.27h-.28Zm.71,0h.28v-.27H38Zm.72,0h.24v-.27H38.7Zm-4.25.69h.27v-.26h-.27Zm.71,0h.24v-.26h-.24Zm.72,0h.23v-.26h-.23Zm.67,0h.28v-.26h-.28Zm.72,0h.28v-.26h-.28Zm.71,0h.28v-.26H38Zm-3.53.66h.27V21.2h-.27Zm.71,0h.24V21.2h-.24Zm.72,0h.23V21.2h-.23Zm.67,0h.28V21.2h-.28Zm.72,0h.28V21.2h-.28Zm-2.82.69h.27v-.23h-.27Zm.71,0h.24v-.23h-.24Zm.72,0h.23v-.23h-.23Zm.67,0h.28v-.23h-.28Zm.72,0h.28v-.23h-.28Zm-3.54.69H34v-.27h-.28Zm.72,0h.27v-.27h-.27Zm.71,0h.24v-.27h-.24Zm.72,0h.23v-.27h-.23Zm.67,0h.28v-.27h-.28Zm-2.82.69H34v-.27h-.28Zm.72,0h.27v-.27h-.27Zm.71,0h.24v-.27h-.24Zm.72,0h.23v-.27h-.23Zm.67,0h.28v-.27h-.28Zm-2.82.7H34v-.27h-.28Zm.72,0h.27v-.27h-.27Zm.71,0h.24v-.27h-.24Zm.72,0h.23v-.27h-.23Zm.67,0h.28v-.27h-.28ZM33,24.89h.28v-.27H33Zm.72,0H34v-.27h-.28Zm.72,0h.27v-.27h-.27Zm.71,0h.24v-.27h-.24Zm.72,0h.23v-.27h-.23Zm.67,0h.28v-.27h-.28Zm.72,0h.28v-.27h-.28ZM33,25.54h.28v-.23H33Zm.72,0H34v-.23h-.28Zm.72,0h.27v-.23h-.27Zm.71,0h.24v-.23h-.24Zm.72,0h.23v-.23h-.23Zm.67,0h.28v-.23h-.28Zm.72,0h.28v-.23h-.28ZM33,26.23h.28V26H33Zm.72,0H34V26h-.28Zm.72,0h.27V26h-.27Zm.71,0h.24V26h-.24Zm.72,0h.23V26h-.23Zm.67,0h.28V26h-.28Zm.72,0h.28V26h-.28Zm.71,0h.28V26H38Zm-5,.7h.28v-.27H33Zm.72,0H34v-.27h-.28Zm.72,0h.27v-.27h-.27Zm.71,0h.24v-.27h-.24Zm.72,0h.23v-.27h-.23Zm.67,0h.28v-.27h-.28Zm.72,0h.28v-.27h-.28Zm.71,0h.28v-.27H38Zm.72,0h.24v-.27H38.7Zm-6.4.69h.28v-.27H32.3Zm.71,0h.28v-.27H33Zm.72,0H34v-.27h-.28Zm.72,0h.27v-.27h-.27Zm.71,0h.24v-.27h-.24Zm.72,0h.23v-.27h-.23Zm.67,0h.28v-.27h-.28Zm.72,0h.28v-.27h-.28Zm.71,0h.28v-.27H38Zm.72,0h.24v-.27H38.7Zm-6.4.69h.28V28H32.3Zm.71,0h.28V28H33Zm.72,0H34V28h-.28Zm.72,0h.27V28h-.27Zm.71,0h.24V28h-.24Zm.72,0h.23V28h-.23Zm.67,0h.28V28h-.28Zm.72,0h.28V28h-.28Zm.71,0h.28V28H38Zm.72,0h.24V28H38.7Zm.71,0h.24V28h-.24ZM32.3,29h.28v-.23H32.3Zm2.15,0h.27v-.23h-.27Zm.71,0h.24v-.23h-.24Zm.72,0h.23v-.23h-.23Zm.67,0h.28v-.23h-.28Zm.72,0h.28v-.23h-.28ZM38,29h.28v-.23H38Zm.72,0h.24v-.23H38.7Zm.71,0h.24v-.23h-.24Zm.68,0h.28v-.23h-.28Zm-8.47.69h.24v-.22h-.24Zm2.83,0h.27v-.22h-.27Zm.71,0h.24v-.22h-.24Zm.72,0h.23v-.22h-.23Zm.67,0h.28v-.22h-.28Zm.72,0h.28v-.22h-.28Zm.71,0h.28v-.22H38Zm.72,0h.24v-.22H38.7Zm.71,0h.24v-.22h-.24Zm.68,0h.28v-.22h-.28Zm-8.47.7h.24v-.27h-.24Zm3.54,0h.24v-.27h-.24Zm.72,0h.23v-.27h-.23Zm.67,0h.28v-.27h-.28Zm.72,0h.28v-.27h-.28Zm.71,0h.28v-.27H38Zm.72,0h.24v-.27H38.7Zm.71,0h.24v-.27h-.24Zm.68,0h.28v-.27h-.28Zm.71,0h.28v-.27H40.8ZM35.88,31h.23v-.27h-.23Zm.67,0h.28v-.27h-.28Zm.72,0h.28v-.27h-.28ZM38,31h.28v-.27H38Zm.72,0h.24v-.27H38.7Zm.71,0h.24v-.27h-.24Zm.68,0h.28v-.27h-.28Zm.71,0h.28v-.27H40.8Zm.72,0h.28v-.27h-.28Zm-10.61.69h.24v-.27h-.24Zm5,0h.23v-.27h-.23Zm.67,0h.28v-.27h-.28Zm.72,0h.28v-.27h-.28Zm.71,0h.28v-.27H38Zm.72,0h.24v-.27H38.7Zm.71,0h.24v-.27h-.24Zm.68,0h.28v-.27h-.28Zm.71,0h.28v-.27H40.8Zm.72,0h.28v-.27h-.28Zm-5,.65h.28v-.22h-.28Zm.72,0h.28v-.22h-.28Zm.71,0h.28v-.22H38Zm.72,0h.24v-.22H38.7Zm.71,0h.24v-.22h-.24Zm.68,0h.28v-.22h-.28Zm.71,0h.28v-.22H40.8Zm.72,0h.28v-.22h-.28Zm.71,0h.24v-.22h-.24Zm-5,.7h.28v-.23h-.28Zm.71,0h.28v-.23H38Zm.72,0h.24v-.23H38.7Zm.71,0h.24v-.23h-.24Zm.68,0h.28v-.23h-.28Zm.71,0h.28v-.23H40.8Zm.72,0h.28v-.23h-.28Zm.71,0h.24v-.23h-.24Zm.72,0h.24v-.23H43Z"/><polygon class="cls-2" points="29.48 33.92 29.24 34.23 22.48 34.23 29.24 24.27 22.64 14.66 29.44 14.66 32.62 19.31 35.52 15.12 29.48 33.92"/><path class="cls-2" d="M16.14,27.69h-.45v-.24h-.25v.24H15v-.24H14.7v.24h-.45v-.24H14v.24h-.45v-.24h-.29v.24h-.45v-.24h-.2l.16-.46h0v-.16l.45-1.48v.21h.29v-.29h-.25l.13-.45h.12v-.29h0l.62-1.92h.16v-.25h-.08l0-.25H16a2,2,0,0,0,1-.24h.2v-.12a1.39,1.39,0,0,0,.21-.21,3.66,3.66,0,0,0,.33-.37h.2v-.29h-.08a1.92,1.92,0,0,0,.12-.69,2,2,0,0,0-.08-.49h0v-.29h-.12a3,3,0,0,0-.41-.66,2.16,2.16,0,0,0-.95-.57V18h-.28v.17s-.09,0-.17,0h-.28V18h-.17l.17-.45h0v-.08L16.14,16v.09h.28v-.29h-.2l.12-.45h.08v-.25l.46-1.47v.28h.28v-.28h-.28l.16-.46h.12v0a8,8,0,0,1,1.93.5h0v.28h.25v-.2a12.61,12.61,0,0,1,1.27.65h-.08v.25h.28v-.12a7.77,7.77,0,0,1,.91.69,7.31,7.31,0,0,1,1.19,1.36h-.17v.28H23v-.12c.16.25.33.49.49.78v.08h0a1.69,1.69,0,0,1,.21.45h-.21v.25h.25v-.17a6.55,6.55,0,0,1,.41,2.34,6.31,6.31,0,0,1-.54,2.67h-.12v.29h0a8.42,8.42,0,0,1-1.39,1.92H22v.08a1.38,1.38,0,0,1-.28.25,8.32,8.32,0,0,1-1.64,1.15h-.29v.12c-.17.08-.37.16-.62.25a8.69,8.69,0,0,1-1.27.37v0h-.29v.12c-.16,0-.28,0-.45,0v-.16h-.28v.2h-.46v-.2h-.28Zm1.47-13.82h.29v-.28h-.29Zm.74,0h.25v-.28h-.25Zm-1.47.7h.28v-.25h-.28Zm.73,0h.29v-.25h-.29Zm.74,0h.25v-.25h-.25Zm.74,0h.25v-.25h-.25Zm.7,0h.29v-.25h-.29Zm-2.91.74h.28v-.25h-.28Zm.73,0h.29v-.25h-.29Zm.74,0h.25v-.25h-.25Zm.74,0h.25v-.25h-.25Zm.7,0h.29v-.25h-.29Zm.74,0h.28v-.25h-.28Zm.73,0h.29v-.25h-.29Zm-4.38.74h.28v-.29h-.28Zm.73,0h.29v-.29h-.29Zm.74,0h.25v-.29h-.25Zm.74,0h.25v-.29h-.25Zm.7,0h.29v-.29h-.29Zm.74,0h.28v-.29h-.28Zm.73,0h.29v-.29h-.29Zm.74,0h.29v-.29H22Zm-5.86.73h.28V16.5h-.28Zm.74,0h.28V16.5h-.28Zm.73,0h.29V16.5h-.29Zm.74,0h.25V16.5h-.25Zm.74,0h.25V16.5h-.25Zm.7,0h.29V16.5h-.29Zm.74,0h.28V16.5h-.28Zm.73,0h.29V16.5h-.29Zm.74,0h.29V16.5H22Zm-5.86.74h.28v-.29h-.28Zm.74,0h.28v-.29h-.28Zm.73,0h.29v-.29h-.29Zm.74,0h.25v-.29h-.25Zm.74,0h.25v-.29h-.25Zm.7,0h.29v-.29h-.29Zm.74,0h.28v-.29h-.28Zm.73,0h.29v-.29h-.29Zm.74,0h.29v-.29H22Zm.74,0H23v-.29h-.25Zm-5.86.7h.28V18h-.28Zm.73,0h.29V18h-.29Zm.74,0h.25V18h-.25Zm.74,0h.25V18h-.25Zm.7,0h.29V18h-.29Zm.74,0h.28V18h-.28Zm.73,0h.29V18h-.29Zm.74,0h.29V18H22Zm.74,0H23V18h-.25ZM17.61,19h.29v-.25h-.29Zm.74,0h.25v-.25h-.25Zm.74,0h.25v-.25h-.25Zm.7,0h.29v-.25h-.29Zm.74,0h.28v-.25h-.28Zm.73,0h.29v-.25h-.29ZM22,19h.29v-.25H22Zm.74,0H23v-.25h-.25Zm.74,0h.25v-.25h-.25Zm-5.13.74h.25v-.29h-.25Zm.74,0h.25v-.29h-.25Zm.7,0h.29v-.29h-.29Zm.74,0h.28v-.29h-.28Zm.73,0h.29v-.29h-.29Zm.74,0h.29v-.29H22Zm.74,0H23v-.29h-.25Zm.74,0h.25v-.29h-.25Zm-5.13.73h.25v-.28h-.25Zm.74,0h.25v-.28h-.25Zm.7,0h.29v-.28h-.29Zm.74,0h.28v-.28h-.28Zm.73,0h.29v-.28h-.29Zm.74,0h.29v-.28H22Zm.74,0H23v-.28h-.25Zm.74,0h.25v-.28h-.25Zm-5.13.74h.25v-.29h-.25Zm.74,0h.25v-.29h-.25Zm.7,0h.29v-.29h-.29Zm.74,0h.28v-.29h-.28Zm.73,0h.29v-.29h-.29Zm.74,0h.29v-.29H22Zm.74,0H23v-.29h-.25Zm.74,0h.25v-.29h-.25Zm-5.87.7h.29v-.25h-.29Zm.74,0h.25v-.25h-.25Zm.74,0h.25v-.25h-.25Zm.7,0h.29v-.25h-.29Zm.74,0h.28v-.25h-.28Zm.73,0h.29v-.25h-.29Zm.74,0h.29v-.25H22Zm.74,0H23v-.25h-.25Zm.74,0h.25v-.25h-.25Zm-8.78.74H15v-.25H14.7Zm.74,0h.25v-.25h-.25Zm.7,0h.28v-.25h-.28Zm.74,0h.28v-.25h-.28Zm.73,0h.29v-.25h-.29Zm.74,0h.25v-.25h-.25Zm.74,0h.25v-.25h-.25Zm.7,0h.29v-.25h-.29Zm.74,0h.28v-.25h-.28Zm.73,0h.29v-.25h-.29Zm.74,0h.29v-.25H22Zm.74,0H23v-.25h-.25Zm.74,0h.25v-.25h-.25ZM14,23.35h.29v-.29H14Zm.74,0H15v-.29H14.7Zm.74,0h.25v-.29h-.25Zm.7,0h.28v-.29h-.28Zm.74,0h.28v-.29h-.28Zm.73,0h.29v-.29h-.29Zm.74,0h.25v-.29h-.25Zm.74,0h.25v-.29h-.25Zm.7,0h.29v-.29h-.29Zm.74,0h.28v-.29h-.28Zm.73,0h.29v-.29h-.29Zm.74,0h.29v-.29H22Zm.74,0H23v-.29h-.25ZM14,24.08h.29V23.8H14Zm.74,0H15V23.8H14.7Zm.74,0h.25V23.8h-.25Zm.7,0h.28V23.8h-.28Zm.74,0h.28V23.8h-.28Zm.73,0h.29V23.8h-.29Zm.74,0h.25V23.8h-.25Zm.74,0h.25V23.8h-.25Zm.7,0h.29V23.8h-.29Zm.74,0h.28V23.8h-.28Zm.73,0h.29V23.8h-.29Zm.74,0h.29V23.8H22Zm.74,0H23V23.8h-.25ZM14,24.82h.29v-.29H14Zm.74,0H15v-.29H14.7Zm.74,0h.25v-.29h-.25Zm.7,0h.28v-.29h-.28Zm.74,0h.28v-.29h-.28Zm.73,0h.29v-.29h-.29Zm.74,0h.25v-.29h-.25Zm.74,0h.25v-.29h-.25Zm.7,0h.29v-.29h-.29Zm.74,0h.28v-.29h-.28Zm.73,0h.29v-.29h-.29Zm.74,0h.29v-.29H22Zm-8,.74h.29v-.29H14Zm.74,0H15v-.29H14.7Zm.74,0h.25v-.29h-.25Zm.7,0h.28v-.29h-.28Zm.74,0h.28v-.29h-.28Zm.73,0h.29v-.29h-.29Zm.74,0h.25v-.29h-.25Zm.74,0h.25v-.29h-.25Zm.7,0h.29v-.29h-.29Zm.74,0h.28v-.29h-.28Zm.73,0h.29v-.29h-.29Zm-8,.7h.29V26h-.29Zm.74,0h.29V26H14Zm.74,0H15V26H14.7Zm.74,0h.25V26h-.25Zm.7,0h.28V26h-.28Zm.74,0h.28V26h-.28Zm.73,0h.29V26h-.29Zm.74,0h.25V26h-.25Zm.74,0h.25V26h-.25Zm.7,0h.29V26h-.29Zm.74,0h.28V26h-.28ZM13.22,27h.29v-.24h-.29ZM14,27h.29v-.24H14Zm.74,0H15v-.24H14.7Zm.74,0h.25v-.24h-.25Zm.7,0h.28v-.24h-.28Zm.74,0h.28v-.24h-.28Zm.73,0h.29v-.24h-.29Zm.74,0h.25v-.24h-.25Zm.74,0h.25v-.24h-.25Zm-6.56.74v.45h0v.29h0v.45h0v.29h0v.45h0v.24h0v.5h0v.24h0v.45h0v.29h0v.45h0v.29h0v.45h0v.29h0v.45h0v.28h0v.33h-2l.57-1.8h.17v-.29h-.09l.58-1.93H12v-.24h-.16l.16-.45h0v0l.45-1.48v0Zm-.78,2.91H12V30.4h-.28Zm0,.74H12v-.29h-.28Zm0,.74H12v-.29h-.28Zm-.7.74h.25v-.29h-.25Zm.7,0H12v-.29h-.28Zm-.7.73h.25v-.28h-.25Zm.7,0H12v-.28h-.28Z"/><path class="cls-2" d="M9.61,34.91H5.55V14h9.64a6.12,6.12,0,0,1,.86,0l-1.55,5H11.66v4h1.6Z"/></g></g></svg>