<svg xmlns="http://www.w3.org/2000/svg" viewBox="0 0 48 48"><defs><style>.cls-1{fill:#dc2727;}.cls-2{fill:#fff;}.cls-3{fill:none;stroke:#fff;stroke-miterlimit:10;stroke-width:0.15px;}</style></defs><g id="Layer_2" data-name="Layer 2"><g id="Layer_1-2" data-name="Layer 1"><path class="cls-1" d="M0,15.58C0,9.36,3.84,3.75,9.88,2.26,20-.22,35.24-2.26,42.75,5.25c6.34,6.34,5.87,18.2,4.08,27.82C45.12,42.24,36.59,48,27.25,48H7.5A7.5,7.5,0,0,1,0,40.5Z"/><path class="cls-2" d="M27.32,26.67l0-.05h0v-.06h-.07l-.1-.15h0L27,26.13h0v-.07h-.06l-.11-.15h0l-.18-.27h0v-.06h-.07l-.06-.09-.06.09h-.05v.06h0l-.1.16v-.05h-.07v.05h.07l-.19.27h0v.07h0l-.3.43h0l.14-.43h.05v-.07h0l0-.1h0l.12-.33h.05v-.06h0l0-.1h0v0l.11-.33v.05h.07v-.07h-.06l0-.1h0v-.06h0l.14-.43h0v-.07h0l.14-.43h.05v-.06h0l.14-.43h.06v-.07h0l0-.1h0v0l.11-.33v0H27v-.06h0l0-.1h0v-.06l.14-.44h0v-.06h0l.07-.2,0-.07h.07V22h.11V22h.06V22h.11V22h.07V22h.1V22h.06V22h.11V22H28V22h.11V22h.06V22h.11V22h.07V22h.1V22h.07V22h.1V22h.06V22h.12V22h.05V22h.06l-.1.15h0v0l-.12.15v0h-.06v.06h0l-.18.27h0v0l-.1.15v0h-.07v.06h0l-.18.27h0v0l-.11.15v0h-.06v.06h0l-.18.27h0v.05l-.1.15v0h-.07v0h.05l-.19.27h0v.06l-.1.14.1.13h0v.07h0l.19.27h-.06v.05h.07v0l.1.15V25h0l.18.27h-.05v.06H28v0l.11.16v0h0l.19.27h-.05v.05h.07v0l.1.15V26h0l.18.27h0v.06h.06v0l.12.16v0h0l.15.22Zm-.08-4.51h.07v-.05h-.07Zm.18,0h.06v-.05h-.06Zm.17,0h.07v-.05h-.07Zm.17,0h.06v-.05h-.06Zm.17,0H28v-.05h-.06Zm.17,0h.06v-.05H28.1Zm.17,0h.07v-.05h-.07Zm.17,0h.07v-.05h-.07Zm.17,0h.06v-.05h-.06Zm-1.37.17h.07v-.06h-.07Zm.18,0h.06v-.06h-.06Zm.17,0h.07v-.06h-.07Zm.17,0h.06v-.06h-.06Zm.17,0H28v-.06h-.06Zm.17,0h.06v-.06H28.1Zm.17,0h.07v-.06h-.07Zm.17,0h.07v-.06h-.07Zm-1.36.17h.06v-.07h-.06Zm.16,0h.07v-.07h-.07Zm.18,0h.06v-.07h-.06Zm.17,0h.07v-.07h-.07Zm.17,0h.06v-.07h-.06Zm.17,0H28v-.07h-.06Zm.17,0h.06v-.07H28.1Zm.17,0h.07v-.07h-.07Zm.17,0h.07v-.07h-.07Zm-1.36.16h.06V22.6h-.06Zm.16,0h.07V22.6h-.07Zm.18,0h.06V22.6h-.06Zm.17,0h.07V22.6h-.07Zm.17,0h.06V22.6h-.06Zm.17,0H28V22.6h-.06Zm.17,0h.06V22.6H28.1Zm.17,0h.07V22.6h-.07Zm-1.19.17h.06v-.06h-.06Zm.16,0h.07v-.06h-.07Zm.18,0h.06v-.06h-.06Zm.17,0h.07v-.06h-.07Zm.17,0h.06v-.06h-.06Zm.17,0H28v-.06h-.06Zm.17,0h.06v-.06H28.1Zm-1,.16h.06v-.06h-.06Zm.16,0h.07v-.06h-.07Zm.18,0h.06v-.06h-.06Zm.17,0h.07v-.06h-.07Zm.17,0h.06v-.06h-.06Zm.17,0H28v-.06h-.06Zm.17,0h.06v-.06H28.1Zm-1.19.16H27v0h-.06Zm.17,0h.06v0h-.06Zm.16,0h.07v0h-.07Zm.18,0h.06v0h-.06Zm.17,0h.07v0h-.07Zm.17,0h.06v0h-.06Zm.17,0H28v0h-.06Zm-1,.17H27v-.06h-.06Zm.17,0h.06v-.06h-.06Zm.16,0h.07v-.06h-.07Zm.18,0h.06v-.06h-.06Zm.17,0h.07v-.06h-.07Zm.17,0h.06v-.06h-.06Zm-.85.17H27v-.07h-.06Zm.17,0h.06v-.07h-.06Zm.16,0h.07v-.07h-.07Zm.18,0h.06v-.07h-.06Zm.17,0h.07v-.07h-.07Zm.17,0h.06v-.07h-.06Zm-1,.16h.06v-.06h-.06Zm.17,0H27v-.06h-.06Zm.17,0h.06v-.06h-.06Zm.16,0h.07v-.06h-.07Zm.18,0h.06v-.06h-.06Zm.17,0h.07v-.06h-.07Zm-.85.16h.06v0h-.06Zm.17,0H27v0h-.06Zm.17,0h.06v0h-.06Zm.16,0h.07v0h-.07Zm.18,0h.06v0h-.06Zm-.68.17h.06v-.06h-.06Zm.17,0H27v-.06h-.06Zm.17,0h.06v-.06h-.06Zm.16,0h.07v-.06h-.07Zm.18,0h.06v-.06h-.06Zm-.86.17h.07v-.07h-.07Zm.18,0h.06v-.07h-.06Zm.17,0H27v-.07h-.06Zm.17,0h.06v-.07h-.06Zm.16,0h.07v-.07h-.07Zm-.68.16h.07v-.06h-.07Zm.18,0h.06v-.06h-.06Zm.17,0H27v-.06h-.06Zm.17,0h.06v-.06h-.06Zm.16,0h.07v-.06h-.07Zm-.68.17h.07v-.07h-.07Zm.18,0h.06v-.07h-.06Zm.17,0H27v-.07h-.06Zm.17,0h.06v-.07h-.06Zm.16,0h.07v-.07h-.07Zm-.85.17h.07v-.07h-.07Zm.17,0h.07v-.07h-.07Zm.18,0h.06v-.07h-.06Zm.17,0H27v-.07h-.06Zm.17,0h.06v-.07h-.06Zm.16,0h.07v-.07h-.07Zm.18,0h.06v-.07h-.06Zm-1,.15h.07v-.05h-.07Zm.17,0h.07v-.05h-.07Zm.18,0h.06v-.05h-.06Zm.17,0H27v-.05h-.06Zm.17,0h.06v-.05h-.06Zm.16,0h.07v-.05h-.07Zm.18,0h.06v-.05h-.06Zm-1,.17h.07v-.06h-.07Zm.17,0h.07v-.06h-.07Zm.18,0h.06v-.06h-.06Zm.17,0H27v-.06h-.06Zm.17,0h.06v-.06h-.06Zm.16,0h.07v-.06h-.07Zm.18,0h.06v-.06h-.06Zm.17,0h.07v-.06h-.07Zm-1.2.17h.07v-.07h-.07Zm.17,0h.07v-.07h-.07Zm.18,0h.06v-.07h-.06Zm.17,0H27v-.07h-.06Zm.17,0h.06v-.07h-.06Zm.16,0h.07v-.07h-.07Zm.18,0h.06v-.07h-.06Zm.17,0h.07v-.07h-.07Zm.17,0h.06v-.07h-.06Zm-1.54.16h.07v-.06h-.07Zm.17,0h.07v-.06h-.07Zm.17,0h.07v-.06h-.07Zm.18,0h.06v-.06h-.06Zm.17,0H27v-.06h-.06Zm.17,0h.06v-.06h-.06Zm.16,0h.07v-.06h-.07Zm.18,0h.06v-.06h-.06Zm.17,0h.07v-.06h-.07Zm.17,0h.06v-.06h-.06Zm-1.54.17h.07v-.06h-.07Zm.17,0h.07v-.06h-.07Zm.17,0h.07v-.06h-.07Zm.18,0h.06v-.06h-.06Zm.17,0H27v-.06h-.06Zm.17,0h.06v-.06h-.06Zm.16,0h.07v-.06h-.07Zm.18,0h.06v-.06h-.06Zm.17,0h.07v-.06h-.07Zm.17,0h.06v-.06h-.06Zm.17,0H28v-.06h-.06Zm-1.71.16h.07v-.06h-.07Zm.52,0h.06v-.06h-.06Zm.17,0H27v-.06h-.06Zm.17,0h.06v-.06h-.06Zm.16,0h.07v-.06h-.07Zm.18,0h.06v-.06h-.06Zm.17,0h.07v-.06h-.07Zm.17,0h.06v-.06h-.06Zm.17,0H28v-.06h-.06Zm.17,0h.06v-.06H28.1Zm-2,.16h.05v-.05h-.05Zm.68,0h.06v-.05h-.06Zm.17,0H27v-.05h-.06Zm.17,0h.06v-.05h-.06Zm.16,0h.07v-.05h-.07Zm.18,0h.06v-.05h-.06Zm.17,0h.07v-.05h-.07Zm.17,0h.06v-.05h-.06Zm.17,0H28v-.05h-.06Zm.17,0h.06v-.05H28.1Zm-2,.17h.05V25.9h-.05Zm.85,0H27V25.9h-.06Zm.17,0h.06V25.9h-.06Zm.16,0h.07V25.9h-.07Zm.18,0h.06V25.9h-.06Zm.17,0h.07V25.9h-.07Zm.17,0h.06V25.9h-.06Zm.17,0H28V25.9h-.06Zm.17,0h.06V25.9H28.1Zm.17,0h.07V25.9h-.07Zm-1.19.17h.06v-.07h-.06Zm.16,0h.07v-.07h-.07Zm.18,0h.06v-.07h-.06Zm.17,0h.07v-.07h-.07Zm.17,0h.06v-.07h-.06Zm.17,0H28v-.07h-.06Zm.17,0h.06v-.07H28.1Zm.17,0h.07v-.07h-.07Zm.17,0h.07v-.07h-.07Zm-2.56.16h.06v-.06h-.06Zm1.2,0h.06v-.06h-.06Zm.16,0h.07v-.06h-.07Zm.18,0h.06v-.06h-.06Zm.17,0h.07v-.06h-.07Zm.17,0h.06v-.06h-.06Zm.17,0H28v-.06h-.06Zm.17,0h.06v-.06H28.1Zm.17,0h.07v-.06h-.07Zm.17,0h.07v-.06h-.07Zm-1.2.16h.07V26.4h-.07Zm.18,0h.06V26.4h-.06Zm.17,0h.07V26.4h-.07Zm.17,0h.06V26.4h-.06Zm.17,0H28V26.4h-.06Zm.17,0h.06V26.4H28.1Zm.17,0h.07V26.4h-.07Zm.17,0h.07V26.4h-.07Zm.17,0h.06V26.4h-.06Zm-1.19.17h.06v-.06h-.06Zm.17,0h.07v-.06h-.07Zm.17,0h.06v-.06h-.06Zm.17,0H28v-.06h-.06Zm.17,0h.06v-.06H28.1Zm.17,0h.07v-.06h-.07Zm.17,0h.07v-.06h-.07Zm.17,0h.06v-.06h-.06Zm.18,0h.05v-.06h-.05Z"/><polygon class="cls-2" points="25.54 26.82 25.48 26.9 23.85 26.9 25.48 24.5 23.89 22.18 25.53 22.18 26.3 23.3 27 22.29 25.54 26.82"/><path class="cls-2" d="M22.33,25.32h-.11v-.06h-.06v.06H22v-.06H22v.06h-.11v-.06H21.8v.06h-.11v-.06h-.07v.06h-.1v-.06h-.05l0-.11h0v0l.1-.35v0h.07v-.07h-.06l0-.11h0v-.07h0l.15-.46h0V24h0V24h.43a.44.44,0,0,0,.23-.06h.05v0l.05-.05.08-.09h.05v-.07h0a.47.47,0,0,0,0-.17.5.5,0,0,0,0-.12h0v-.06h0a.7.7,0,0,0-.1-.16A.54.54,0,0,0,22.4,23V23h-.07v0h-.11v0h0l0-.11h0v0l.11-.35v0h.07v-.07h0l0-.11h0v-.06l.1-.36V22h.07v-.07H22.5l0-.11h0a1.91,1.91,0,0,1,.47.12h0V22h.06v0l.3.16h0v.06h.07v0a1.84,1.84,0,0,1,.22.17,2.15,2.15,0,0,1,.29.32h0v.07H24v0l.12.19v0h0s0,.07,0,.11h0V23h0v0a1.66,1.66,0,0,1,0,1.21h0v.06h0a2,2,0,0,1-.34.47h0v0l-.07.06a2.09,2.09,0,0,1-.39.27h-.07v0l-.15.06a1.81,1.81,0,0,1-.31.09h-.07v0h-.11v0H22.5v0h-.1v0h-.07ZM22.68,22h.07v-.07h-.07Zm.18,0h.06v-.07h-.06Zm-.36.17h.07V22.1H22.5Zm.18,0h.07V22.1h-.07Zm.18,0h.06V22.1h-.06Zm.18,0h.06V22.1H23Zm.17,0h.07V22.1h-.07Zm-.71.18h.07v-.06H22.5Zm.18,0h.07v-.06h-.07Zm.18,0h.06v-.06h-.06Zm.18,0h.06v-.06H23Zm.17,0h.07v-.06h-.07Zm.17,0h.07v-.06h-.07Zm.18,0h.07v-.06h-.07Zm-1.06.18h.07v-.07H22.5Zm.18,0h.07v-.07h-.07Zm.18,0h.06v-.07h-.06Zm.18,0h.06v-.07H23Zm.17,0h.07v-.07h-.07Zm.17,0h.07v-.07h-.07Zm.18,0h.07v-.07h-.07Zm.18,0h.07v-.07h-.07Zm-1.41.17h.07v-.07h-.07Zm.17,0h.07v-.07H22.5Zm.18,0h.07v-.07h-.07Zm.18,0h.06v-.07h-.06Zm.18,0h.06v-.07H23Zm.17,0h.07v-.07h-.07Zm.17,0h.07v-.07h-.07Zm.18,0h.07v-.07h-.07Zm.18,0h.07v-.07h-.07Zm-1.41.18h.07V22.8h-.07Zm.17,0h.07V22.8H22.5Zm.18,0h.07V22.8h-.07Zm.18,0h.06V22.8h-.06Zm.18,0h.06V22.8H23Zm.17,0h.07V22.8h-.07Zm.17,0h.07V22.8h-.07Zm.18,0h.07V22.8h-.07Zm.18,0h.07V22.8h-.07Zm.18,0H24V22.8h-.06ZM22.5,23h.07V23H22.5Zm.18,0h.07V23h-.07Zm.18,0h.06V23h-.06ZM23,23h.06V23H23Zm.17,0h.07V23h-.07Zm.17,0h.07V23h-.07Zm.18,0h.07V23h-.07Zm.18,0h.07V23h-.07Zm.18,0H24V23h-.06Zm-1.24.18h.07v-.06h-.07Zm.18,0h.06v-.06h-.06Zm.18,0h.06v-.06H23Zm.17,0h.07v-.06h-.07Zm.17,0h.07v-.06h-.07Zm.18,0h.07v-.06h-.07Zm.18,0h.07v-.06h-.07Zm.18,0H24v-.06h-.06Zm.18,0h0v-.06h0Zm-1.24.17h.06v-.06h-.06Zm.18,0h.06v-.06H23Zm.17,0h.07v-.06h-.07Zm.17,0h.07v-.06h-.07Zm.18,0h.07v-.06h-.07Zm.18,0h.07v-.06h-.07Zm.18,0H24v-.06h-.06Zm.18,0h0v-.06h0Zm-1.24.18h.06V23.5h-.06Zm.18,0h.06V23.5H23Zm.17,0h.07V23.5h-.07Zm.17,0h.07V23.5h-.07Zm.18,0h.07V23.5h-.07Zm.18,0h.07V23.5h-.07Zm.18,0H24V23.5h-.06Zm.18,0h0V23.5h0Zm-1.24.18h.06v-.07h-.06Zm.18,0h.06v-.07H23Zm.17,0h.07v-.07h-.07Zm.17,0h.07v-.07h-.07Zm.18,0h.07v-.07h-.07Zm.18,0h.07v-.07h-.07Zm.18,0H24v-.07h-.06Zm.18,0h0v-.07h0Zm-1.42.17h.07v-.06h-.07Zm.18,0h.06v-.06h-.06Zm.18,0h.06v-.06H23Zm.17,0h.07v-.06h-.07Zm.17,0h.07v-.06h-.07Zm.18,0h.07v-.06h-.07Zm.18,0h.07v-.06h-.07Zm.18,0H24v-.06h-.06Zm.18,0h0v-.06h0ZM22,24.1H22V24H22Zm.18,0h.06V24h-.06Zm.17,0h.07V24h-.07Zm.17,0h.07V24H22.5Zm.18,0h.07V24h-.07Zm.18,0h.06V24h-.06Zm.18,0h.06V24H23Zm.17,0h.07V24h-.07Zm.17,0h.07V24h-.07Zm.18,0h.07V24h-.07Zm.18,0h.07V24h-.07Zm.18,0H24V24h-.06Zm.18,0h0V24h0Zm-2.3.17h.07v-.06H21.8Zm.18,0H22v-.06H22Zm.18,0h.06v-.06h-.06Zm.17,0h.07v-.06h-.07Zm.17,0h.07v-.06H22.5Zm.18,0h.07v-.06h-.07Zm.18,0h.06v-.06h-.06Zm.18,0h.06v-.06H23Zm.17,0h.07v-.06h-.07Zm.17,0h.07v-.06h-.07Zm.18,0h.07v-.06h-.07Zm.18,0h.07v-.06h-.07Zm.18,0H24v-.06h-.06Zm-2.12.18h.07v-.07H21.8Zm.18,0H22v-.07H22Zm.18,0h.06v-.07h-.06Zm.17,0h.07v-.07h-.07Zm.17,0h.07v-.07H22.5Zm.18,0h.07v-.07h-.07Zm.18,0h.06v-.07h-.06Zm.18,0h.06v-.07H23Zm.17,0h.07v-.07h-.07Zm.17,0h.07v-.07h-.07Zm.18,0h.07v-.07h-.07Zm.18,0h.07v-.07h-.07Zm.18,0H24v-.07h-.06Zm-2.12.18h.07v-.07H21.8Zm.18,0H22v-.07H22Zm.18,0h.06v-.07h-.06Zm.17,0h.07v-.07h-.07Zm.17,0h.07v-.07H22.5Zm.18,0h.07v-.07h-.07Zm.18,0h.06v-.07h-.06Zm.18,0h.06v-.07H23Zm.17,0h.07v-.07h-.07Zm.17,0h.07v-.07h-.07Zm.18,0h.07v-.07h-.07Zm.18,0h.07v-.07h-.07Zm-1.94.18h.07v-.07H21.8Zm.18,0H22v-.07H22Zm.18,0h.06v-.07h-.06Zm.17,0h.07v-.07h-.07Zm.17,0h.07v-.07H22.5Zm.18,0h.07v-.07h-.07Zm.18,0h.06v-.07h-.06Zm.18,0h.06v-.07H23Zm.17,0h.07v-.07h-.07Zm.17,0h.07v-.07h-.07Zm.18,0h.07v-.07h-.07ZM21.62,25h.07v-.06h-.07Zm.18,0h.07v-.06H21.8ZM22,25H22v-.06H22Zm.18,0h.06v-.06h-.06Zm.17,0h.07v-.06h-.07Zm.17,0h.07v-.06H22.5Zm.18,0h.07v-.06h-.07Zm.18,0h.06v-.06h-.06ZM23,25h.06v-.06H23Zm.17,0h.07v-.06h-.07Zm.17,0h.07v-.06h-.07Zm-1.76.17h.07v-.06h-.07Zm.18,0h.07v-.06H21.8Zm.18,0H22v-.06H22Zm.18,0h.06v-.06h-.06Zm.17,0h.07v-.06h-.07Zm.17,0h.07v-.06H22.5Zm.18,0h.07v-.06h-.07Zm.18,0h.06v-.06h-.06Zm.18,0h.06v-.06H23Zm-1.58.18v.11h0v.07h0v.11h0v.07h0v.1h0v.06h0V26h0V26h0v.11h0v.07h0v.11h0v.07h0v.11h0v.07h0v.1h0v.07h0v.08H21l.14-.43h0v-.07h0l.14-.47h.06v-.06h0l0-.1h0l.11-.36h0Zm-.19.7h.07V26h-.07Zm0,.18h.07v-.07h-.07Zm0,.18h.07v-.07h-.07Zm-.17.18h.06V26.5H21.1Zm.17,0h.07V26.5h-.07Zm-.17.17h.06v-.07H21.1Zm.17,0h.07v-.07h-.07Z"/><path class="cls-2" d="M20.75,27.06h-1V22h2.53l-.38,1.22h-.68v1h.38Z"/><path class="cls-3" d="M42.25,24.82a18.56,18.56,0,0,1-4.74,11.89c-1,1.21-4.66-.85-6.17-1.05-8.07-3.17-7.48-1.2-.66-5.71,3.6-2.42,7.39-4.67,10.26-8C42.15,20.73,42.25,24.11,42.25,24.82ZM31.58,33.25h0c.08-.34.36-.66.08-1.08l-.2.3a3,3,0,0,1-1-.11c.26-.1.44-.22.59-.2.8.16.89-1.35.33-.62h-.74l.32-.39v.09c.69.16,1-.44.72-1.16l-.53.49c-.55-.27-1.35.08-1.35.64-.54-.3-.92.27-.88.75h.43l0,0,.58.2v.26L28.57,32c-.26.84.46,1,1.12,1.12l0,.26-.82-.27c-.11.3.13.55.18.84h0c-.24-.11-.33,0-.25.2.47.7,1.49.67,2.17,1.07s.86.21.89-.51c0-.37-.36-.68.06-1l.1.56h.07V32.12h-.16v1.25Zm3.6,2.69c-.19.45-.19.45.47.44v-.9l-.16.55L35.17,36c.71-1-.11-1.6.26-2a.54.54,0,0,0,0-.77l-.16.35-.72-.17c.18-.31.69.13.77-.38.05-.29.51-.48.31-.74l-1-.08v-.13c.44.11,1.2-.07.61-.6.53,0,.52-.62.08-.83.22-.18.58-1.32,0-1.31h0L35.35,29a.79.79,0,0,0,.18-1.14l-.6.59c-.69-.13-1.74-.1-1.72.55h.43a.67.67,0,0,1,0,.19c-1.35-.42-1.48.92-.49.75l.52.24-.06.22c-.88-.39-1.39-.61-1,.61.07.25.29.15.46.14a1.27,1.27,0,0,0,.86,0l0,.1-.49.32-1.09-.39.31,1.16h0c-.4.34,0,.73.09,1.12h-.35c.52,1.31-.65,1.06-.21,2.12.09-.2.14-.31.23-.54.23.49.54.77,1.07.57C33.44,36.5,34.62,35.88,35.18,35.94Zm1.06-2.2H36.1c-.38,3.56.16,4.21,2.52,1.15.44-.76-.14-.57-.68-.59a2.48,2.48,0,0,1,.93-.38c.39-.21.25-.67.41-1,0-.55-.63-.05-.94,0,.73-.86.89,0,.87-1.47-.27.06-.41.24-.7.17.18-.26.48-.37.61-.6.21-1,.13-1.67-.71-.48.09-.57-.46-.13-.56-.37.3-.08.65-.12.83-.37.66,0,.52-.75.43-1.18l-.49.38h0l-.85-.31c.5.15.65.11.72-.1.63-.24.74-.33.68-1a1,1,0,0,1-1.24.1l.5-.11c.53.61,1-1.31.47-1.18s-.41.27-.81.07c.32-.12.81-.09,1-.44,0-.3.17-.81,0-1l-.2.23c-.69-.66-3,1.65-1.34,1.32l-.27.34a3.86,3.86,0,0,0-.89-.29c-.05.7,0,.78.46,1.19.06.42.31.22.49.2l-.06.43-.94-.7a1,1,0,0,0,.86,1.44h0l.51.06.06.36c-.4-.32-.9-.08-1.25-.5-.53-.39-.28,1.92.64,1.39.12.29.12.29.61.13l-.13.39-1.37-.55c.21.71-.25,3,.82,2.57l.57.14-.07.26a10.36,10.36,0,0,0-1.15-.31c-.16.5.21.8.67.54l0,.13c-.21.11-.79-.08-.73.28.23.36.8.32,1.14.58l-.19.14-1-.39Zm5.25-11.65c-.36.54-2.6,1.8-1.55,2.16.28.05.41.32.27.5l-.65-.42c-.19,1,.45,1.17,1.06,1.41l-.17.23-.89-.52c-.31.9.28,1.32,1,1.6l-.19.21-.78-.52c-.17.67.18,1.14,1,1.4l-.07.23c-.28-.12-.56-.46-.86-.35s0,1,.29,1.05.58.12.89.18l-.07.24c-.36,0-.89-.52-1.13-.13.06.39.07.79.57.81C41.74,31.51,42.38,22.93,41.49,22.09ZM26,33.22c.43.11.64.65,1.14.37s.24.17.56.34c.34,0,0-.47.08-.66a2.79,2.79,0,0,0,.1-.39C27.63,32.4,26.3,32.81,26,33.22Zm13.77-3c-.12.28,0,1.25.26,1.28C41.05,31.05,40.49,30.59,39.75,30.22Zm-.33-1.16v4.25h.17ZM34,28.19c.14,0,.23.1.24.08.33-.31.8,0,1-.51C34.72,27.45,34.46,27.92,34,28.19Zm-6.07,5.74h.17a2.43,2.43,0,0,0,.08-1.41H28ZM36.08,29H36v1.86h.07Zm-7.73,3.79-.07,1.1A.72.72,0,0,0,28.35,32.78Zm12-.86c-.31-.16-.44-.46-.69-.16C39.93,32.05,39.92,32.32,40.35,31.92ZM35.1,27.41l.09.2c.21-.12.54-.11.34-.43Zm.66,5h.17v-.65h-.12Zm2.87-7.63.17.14C39.25,24.45,39,24.24,38.63,24.75Z"/><path class="cls-3" d="M16.17,24.22c.36,4.58.5,9.22,1.57,13.7,0,.73,1.75,4.11.5,3.87-4.62-.84-8.14-5-10.29-9-.23-.91-1.24-2.11-.5-3A73.47,73.47,0,0,1,14,23.59c2-1.65,2.36-2.82,2.2.63ZM16,35.3h0l.59-1.05-.44-.06h0c.13-.4.41-.78.18-1.3l-.19.28a2.59,2.59,0,0,1-.88-.1v-.15c.48.07.94.12,1.15-.5l-1.12.11v-.1a4.8,4.8,0,0,0,.77-.18c.52-.19.42-1.51-.3-1-.23.09-.54.23-.77.09.55-.36,1.38-.23,1.23-1,0-.55-.41-.51-.86-.48.44-.55,1,0,.78-1,0-.69-.34-.3-.81-.37.8-.21.74-.61.7-1.3s-.57-.27-.93-.35c.79-.23.94-.36.75-1.2.24-.78-.44-.37-.91-.6l0-.09c.95.45,1.27-1.52.5-1.14-.23.12-.23.12-.38-.13a.77.77,0,0,0,.66-1.12,12.28,12.28,0,0,0-1.84,1.68l.08.1.36-.07v.28c-1.8-.35-1,1.42.24,1.52l-.08.27c-.69-.46-1.59-1.08-1,.27-.57.68.56.93,1.05,1.13l-.05.22c-.35-.15-.7-.32-1.06-.46A1.25,1.25,0,0,0,14.75,29c-.07.21-.07.21-1.09-.22-.17.36,0,1.68.62,1.25,0,.49.47.14.63.43a2.32,2.32,0,0,1-1.2-.29A1.32,1.32,0,0,0,14.77,32c-.37.15-.67-.21-1.09-.24a.81.81,0,0,0,.56.95c-.17.13-.33.05-.52.08-.06,1.09.94,0,1.28.66-1.22.07-1.71.6-1.69-.94l-.18,0v3.29l-.38,0h0c.15-.37.61-1.73-.2-1l-.69-.12,0-.12a1,1,0,0,0,1-1.52.58.58,0,0,0-.27.35,5.74,5.74,0,0,0-.9-.13c.27,0,.5-.31.79-.14A1.07,1.07,0,0,0,13,31.79c-.28.22-.6.2-1.07-.05.33-.16.87.12,1-.28.4-.77-.5-.9-1.06-.83a1.45,1.45,0,0,0,.6-.25c.46-.07.56-.22.34-.62a.4.4,0,0,0-.15-.78h0c.45-.72.66-1.37-.42-.76.37-.47.88-.72.8-1.39h.09v2.44a12.2,12.2,0,0,0,0-4.21c-.11.71.32,1.44-.59,1.73l-.71-.08a1,1,0,0,1,.52-.19c.43,0,1.07-1,.34-1.12a11.76,11.76,0,0,0-2.24,1.9c-.38.59-.23.62.36.9l-.6.06-.27-.39c-.19.63.12,1.05.25,1.63h0c-.73,0,0,1.43.76,1.27l-.09.23c-1.3-.48-.91.13-.6,1h0L10,32c.07,1,.3.64.86,1.16l0,.21-1-.49v.75h.07l.09-.29.33,1h0c-.57.12-.06.77.14,1s.94-.5.93.25l-1.22-.16c.14.53.7,1.08,1,1.07a3.36,3.36,0,0,0,.38.73c.78.91.62.69,1.52.32V38l-.61.13c.3.46.37.48.56.25l.15.41.12,0v-1.4h.08l.1,1.62h.13a14.6,14.6,0,0,1,.14-3.31c.08-.38.17-.64-.33-.74v-.83l1.3.58c-.27,0-.54,0-.79.09a.66.66,0,0,0,.37.49c-.14.13-.34.28-.32.31a1.06,1.06,0,0,1,0,.8,4.22,4.22,0,0,1-.1,1.56,2.86,2.86,0,0,0,.31,1.77c1.2.77,2.54,1.69,4,1.67a3.79,3.79,0,0,0-.56-2c.14-.4-.21-1.91-.56-2a5.22,5.22,0,0,0-.29-2.28l-.13.43-.09-.29c-.07.1-.11.17-.1.14ZM9.32,32.51c0-.38.48-1.81-.24-1.38-.26.39-.53.11-.8.07,1-.26,1.26-.56,1.13-1.26l-.94.16c.23-.19.54-.26.72-.44.33-.31.39-1.31-.32-.81-.45.44-.88.89-1.28,1.36-.28.66.31,1.42.46,2.08.16.5.58.26,1,.2l0,.13-.75.2c.25.43.32.89.81,1C9.26,33.51,9.57,32.82,9.32,32.51Zm.29-.78a5,5,0,0,0,.11-2.44H9.61Zm.26,3.46a1.14,1.14,0,0,0-.08-1.1A.68.68,0,0,0,9.87,35.19Zm3.67-3.11V30.83C13.3,31.33,12.86,31.71,13.54,32.08Z"/><path class="cls-3" d="M32.06,25.18c-.49-5.59-.38-11.34-2.12-16.72-.3-.82-.21-.94.65-.83C35.46,9,39.22,13.58,41,18.18c1.39,1.75-7,7.61-8.44,9.1-1,.91-.46-1.58-.6-2.09ZM33.53,21l-1-.35c-.18.45-.12,1.15.46,1a2.28,2.28,0,0,1,.52.44l-.08.08-1-.43c-.06.74-.06,1.4.83,1.45.08.24.32,0,.54,0l-.08.4-1.26-.44c-.18.84.4,1,1,1.18l-.19.25-.79-.39c-.23.78.08,1.23.9,1.29l0,.31-1-.37c.06.52.18,1.52.81.91A25.22,25.22,0,0,0,35.66,24c.06-.13-.09-.33-.24-.21-.3.35-.56,0-.84,0,.36-.18,1.09.13.87-.52.36-.14.42-.64.12-1l-.19.26h-.85v-.1c.44-.1,1.24-.09,1-.78.37-.18.32-.64.14-.93a.8.8,0,0,0-.33.35l-.64,0c.22-.34.71-.16.88-.68a1.56,1.56,0,0,0,.07-1.2l-.2.32h-.66l.23-.36,0,.09c.52,0,.95-1,.62-1.4-.28.37-.57.25-.89.16.87-.47,1,0,1-1.27l-.56.1-.06-.15c.61-.17.66-.48.63-1.07l-.42.18-.05-.09c.86-.66.16-.91.5-1.81.14.43.2.84.35,1.26-.59.38.54.88.28,1.24L36,16c-.09,1.48,1.17,1,.76,1.56-1.08-.68-.49.92.09,1.13l-.6-.07c-.15.54.06.89.42.81l.27.48-.08,0-.56-.33c-.34.83.15.9.76,1l-.15.32c-.42-.27-.82-.34-.69.26s.5.62,1,.62V22c-.29.28-.62-.18-.94,0a.66.66,0,0,0,.74.92l.08.23c.7-.67,1.26-1.35,1.87-2,.54-.24.13-.84.25-1.29h.15c.06,1.44.83.16,1.32-.31.41-.9-.38-2-.66-2.88-2-3.73-5.08-7.4-9.26-8.64-1.26-.67.51,3.43.47,4.05.74-.49.74-.49.61-.92l-.36,0c.07-.12.09-.25.16-.28.52-.22.07-.63.31-1.05.71.78-.24,1,.41,1.37.11.06.4.2.14.44l-.32-.17c-.28.55.16.89.4,1.3l-.42-.07c-.23,1.09.81.21.71,1-1.21-.64-.72.92.28.75l-.12.35-.66-.27-.11.06a5,5,0,0,0,.2.69c.18,0,.77,0,.61.4-.68-.19-.77.24-.47.67a3.24,3.24,0,0,0,.91.19c-.12.22-.71.11-1.12.22a1.44,1.44,0,0,0,1.09.76v.32l-1-.45c0,.8.23,1,1,1.11l0,.25-.81-.15c0,.46.08,1.18.68.76l0,.13.45.16,0,.27-1.14-.36c0,.83.34,1,1.09,1.17ZM32.17,22a20.37,20.37,0,0,0,0-5.57Zm3.71,1.81H36c.1-1.31,0-2.62,0-3.94h-.14ZM31.9,12c-.8.18-.75.21-.55.79S31.79,12.29,31.9,12Zm4.32,11.63.55-.42-.55-.44ZM32,15.26a.7.7,0,0,0,0,1Zm-.24-.17c.24-.21.26-.49.06-.89C31.55,14.36,31.53,14.71,31.71,15.09Zm.14-2L31.71,13c-.28.26-.36.44,0,.7l.12,0Z"/><path class="cls-3" d="M30.5,18.26l-.17.38c-5.66-3-11.48-6-17.82-7.14-.56-.08-.88-.25-.46-.79,3.59-4,9.94-5.22,15.06-4.16,1.05.69,1.05,2.78,1.56,3.93C29.32,13.06,29.86,15.67,30.5,18.26Zm-1.18-2.8c.34-.5-.48-.74-.76-1-.07.42.24,1.09.77,1-.19.34-.59-.09-.79.18.24.94.51.36.74.81C29.69,16.6,29.77,15.4,29.32,15.46Zm-4.68-1c-.23.8.14,1.12.78,1.24.15.32.4.26.62.2.38.56,1.1.64,1.65,1,.21.09.3,0,.35-.19.12-.41-.47-.25-.7-.33.2-.3.84-.14.71-.76l-.52.14,0-.11c1.1-.53.11-.43.6-1.1L28,14.42l-.4.25-.51-.25c1,0,1.54-.86.24-.94.38-.21.94-.23.69-.88l-.76-.08v-.11c.62,0,1-.08.84-.78l-.71.13-.09-.13c.69-.11.88-.49.71-1.1h-.55c.19-.16.57-.39.57-.6-.25-.85-.29-2.74-1.18-3.13C22,5.87,16.1,7.06,12.46,10.66c-.92.76,3,1,3.52,1.35.71.23.45,0,.7-.53.16.46.16.85.71,1,.9.25,1.74.85,2.71.71.07,0,.17-.11.19-.19.32-.71,0-.59-.56-.94.69-.09.8-.37.76-1l-.56.15-.05-.11c.28-.2.81-.35.6-.76s.15-.79.16-1.19l.29.73c-.62.11.09.69.08,1l-.31,0c-.14.61.33.77.67,1.07a.41.41,0,0,1-.29,0c-.77-.24-.15,1.12.47,1.07l-.07.3-.66-.43c-.46.78.49.59.73,1,.15.67,1.41.62,2,.9.63,0,.71-1.12.48-1.62l-.17.28-.77-.1.28-.29c.62.67.85-1.05.71-1.4l-.7.28.37-.51c.37,0,.59-.62.37-1.29l-.43.06c.81-.88.31-1.34.54-2.46h.15c.11.45-.18,1,.26,1.35.1.05.5.18.24.51l-.35-.19c-.21.43-.07,1,.47.88-.18.3.1.25.29.27l-.06.38-.73-.48c0,.85.13,1.18.92,1.41l-.16.37c-.61-.77-1-.12-.61.51a3.19,3.19,0,0,0,.73.3l-.12.33-.6-.3-.09.1c.07.36-.13,1.5.56,1.09,0,.51.3.25.49.3l-.06.33Zm4.82,2.34-.81-.46c-.09.66.16.95.84,1.06,0,.5.15.62.58.62a3.18,3.18,0,0,0-.45-1.59Zm-.62-2.93c-.51.14-.05.53.18.68a1,1,0,0,0-.45-1.42C28.27,13.48,28.73,13.57,28.84,13.85Zm-.07-.8L29,13c-.1-.28,0-.7-.39-.77C28.37,12.53,28.66,12.77,28.77,13.05Zm-.43,3.87.18,0-.16-1.2h-.13ZM28.59,12l.15,0c0-.27,0-.54-.29-.7l-.13.05Z"/><path class="cls-3" d="M24.26,43.13C23,43,20.87,43.35,20.18,42a58.79,58.79,0,0,1-1.68-6.68c.09-.77-1.57-5-.52-4.77,5.59,3,11.26,6.22,17.56,7.43.63.15.68.3.29.83C33.11,42,28.22,43,24.26,43.13Zm-4.67-11h0a.93.93,0,0,0-1.09-.48c.09-.37-.18-.43-.48-.53.24,1.4.3,3.15,1,4.33-.23.46.07,1.23.68.92.21-.11.31-.62.35-.81.39-.15.16-.46.53-.72-.07,1,.2,2.3-.34,3.11l-.08-.47-.19.32c-.42-.23,0-.38,0-.5.32,0,.51,0,.45-.38l-.47,0a.7.7,0,0,0-.8-.23c-.16.07.08,1,.27,1.1s.26.2.13.4c-.08.44.4.27.51-.09v1h.09l.1-.22.21.48-.64.14c.44.92.24,2.48,1.22,3a15.11,15.11,0,0,0,9.33-.8,4.59,4.59,0,0,0,2.55-1c.48,0,2-.81,1.58-1.38.44,0,.71.15.81-.36.35-1.11-2.11-.62-2.76-1.1-.23.52.32.49.55.73-.58.08-.59.09-.47.52l-.28.41c-.09-.08-.2-.24-.28-.22-.79.11-.1-.89-.45-1.37-.25.63-.85.65-1.36.31a1,1,0,0,0,1.38-.7,11.9,11.9,0,0,0-2.86-1.11c.15.47.06,1.2.68,1,0,0,.11.11.17.16l-.06.09a3.59,3.59,0,0,0-.73-.12c-.11.64.5.8.91,1.19l-.87-.27.15.77-.26.11c-.56-.82.19-2.92-.75-3.15a14.64,14.64,0,0,1-.23,2.38v-.42l-.78.28,0-.11c.11-.1.23-.29.34-.28.5,0,.54-.72.52-1-.26-1,.69-1.09-.88-1,.06-.75-.81-.6-1.28-.76s-.87-.48-1.32-.51c-.22.58.2.79.63,1-.12.19-.3.09-.48.14-.27.85.73.36,1.19.44,0,.12,0,.2,0,.2-.41.07-1.18-.24-1.2.34s.55.45.88.71l-.13.2-.64-.31-.13.09a6,6,0,0,0,.33.93h0c-.32.29-.07.53.08.82-.75-.26-.23-1.66-.64-2.36-.4.78.08,1.82-.18,2.65l-.93-.06a1,1,0,0,0,.38-1.11c-.1-.4-.41-.1-.63-.18l0-.24c.61.06.72,0,.74-.33s-.33-.23-.56-.28l.14-.36c.54.16.27-.52.39-.89a1.19,1.19,0,0,1-1.15-.22c.33,0,.73.15,1,0s.3-1.16-.19-1c-.2.36-.6.15-.87.3-.06,0-.18,0-.23,0l.48-.33c.56.16.74-.28.92-.71,0,0-.07-.11-.12-.13-1-.16-1.61-1-2.56-1.1-.52,0-.46.77.09.51a12.39,12.39,0,0,0,1.17.54l-.06.12-1-.26c-.16.45-.09.53.76,1-.33.4-.51-.17-.82-.09-.19.32,0,.76,0,1.09-.25.35-.12.67.06,1l-.32.2c0-.63.09-1.19.07-1.75,0-.34.31-.81-.28-1-.11-.39-.08-.86-.17-1.28h-.08l-.13.76-.25-.24L19.4,34l-.33-.49C19.82,33.59,20.59,32.17,19.59,32.09Zm4.23,2.08h-.18c-.15,1.49-.06,3-.12,4.48,0,.2-.07.53.17.6.46-.7.09-2.1.24-3H24l.11.5a1.7,1.7,0,0,0,0-1.61l-.16.45Zm8.1,3.32c-.25.86-.21,1,.2,1.13l.06-.31h.06l.11.57.08,0-.1-1.25h-.12l-.13.26Z"/><path class="cls-3" d="M5.94,24.46c.17-4.15,1.7-8.78,4.71-11.82,1.13-.78,3.22.53,4.53.69,2.49,1,5.34,1.44,7.6,2.76C18.13,18.9,13.4,21.76,9.41,25.5,6.62,28.32,6.27,29.38,5.94,24.46Zm3.89-1.11-.13,0c0,2,2.56-.78,3.11-1.28a1.46,1.46,0,0,0-.76-.22c.41-.27,1-.14,1-.79,0-.47-.39-.13-.51-.35.59-.21.39-.73.46-1.16l-.88.08c.79-.27,1-.51.92-1.32l-.6.15-.06-.13c.53-.37.68-.09.57-.83.23-.59-.09-.35-.45-.6.21-.07.56-.28.55-.5-.19-.51.06-1,.06-1.54h.11a1.42,1.42,0,0,0,.51,1.5l-.49.06c0,.91.33.32.73.9l-.08.08c-1-.47-.58,1,.24.86l-.05.26-.78-.25c0,.82.14,1.1.94,1.26v.2l-.83-.23-.05.1.16.34c-.58.81,1.32,1.33,1.54.49.41-.4,1.65-.57,1.33-1.34l-.75.06c.22-.35.82-.09.82-.69l-.28-.09a.75.75,0,0,0,.35-1l-.4.35-.9-.14c1.13-.12,1.54-.36,1.35-1.56-.37,0-.69.51-1,.11.73-.18,1.32-.44,1-1.31l-.76.41-.06-.12c1.1-.54,1.09-1.26-.21-1.43s-3.76-1.62-4.85-.71c-3.21,3.68-5.54,9.73-3.86,14.51.51-.54,3-2.46,2.55-3.09-.29.11-.54.38-.89.19.64-.17,1.2-.52.9-1.26l-.56,0c.64-.22,1.1-1.65.13-1.23.17-.55.9-.53.48-1,.09-.37.16-.67.24-1l.24.56c-.26.24-.22.5-.12.83s-.07.6.21.75c-.47.11-.28.48-.11.75s.58.06.59.46Zm9.59-7.53,0-.08.74-.32v-.09l-3.31-1.14-.13.12a1.34,1.34,0,0,0,1.12,1.17l-.09.26-.94-.56c-.08.35.16.49.09.78,0,.54.41.73.86.82-.33.06-.61-.1-.93,0,.06.48,0,1.35.7,1.11.05.36.3.11.45.14-.06,1.11,1.59-.36,1.88-.68l-.71-.07v-.09a1.06,1.06,0,0,0,1.1-1.24A1.36,1.36,0,0,0,19.42,15.82Zm-2.53,2.1-.12,0c.1.36.07,1.54.69,1C18.7,18.46,17.54,18.19,16.89,17.92Zm5.24-1.87c-.12-.12-1.56-.43-1.42-.11C20.79,16.84,21.68,16.53,22.13,16.05ZM13.24,21.2c.39.62.49.33.87,0C13.75,21,13.57,20.74,13.24,21.2Z"/><path class="cls-3" d="M36.24,33.74l0,.63,1,.39.19-.14c-.34-.26-.91-.22-1.14-.58-.06-.36.52-.17.73-.28l0-.13c-.46.26-.83,0-.67-.54a10.36,10.36,0,0,1,1.15.31l.07-.26L37.06,33c-1.07.39-.61-1.85-.82-2.57l1.37.55.13-.39c-.49.16-.49.16-.61-.13-.92.53-1.17-1.78-.64-1.39.35.42.85.18,1.25.5l-.06-.36-.51-.06h0a1,1,0,0,1-.86-1.44l.94.7.06-.43c-.18,0-.43.22-.49-.2-.5-.41-.52-.5-.46-1.19a3.86,3.86,0,0,1,.89.29l.27-.34c-1.66.33.65-2,1.34-1.32L39,25c.19.18,0,.69,0,1-.14.36-.63.33-1,.45.4.2.45.18.81-.07s.06,1.79-.47,1.18l-.5.11a1,1,0,0,0,1.24-.1c.06.68,0,.77-.68,1-.07.21-.22.25-.72.1l.85.31h0l.49-.38c.09.43.23,1.17-.43,1.18-.18.25-.53.29-.83.37.1.24.65-.2.56.37.84-1.19.92-.54.71.49-.13.22-.43.33-.61.59.29.07.44-.11.7-.17,0,1.41-.15.62-.87,1.47.31,0,1-.53.94,0-.16.33,0,.79-.41,1a2.48,2.48,0,0,0-.93.38c.54,0,1.12-.17.68.59-2.37,3.06-2.9,2.4-2.52-1.15Zm1,2.17c-.47-.26-.88-.48-1-1,0,.49-.34,1.35.14,1.6l.06-.07a.59.59,0,0,1-.09-.84l.72.59Z"/><path class="cls-3" d="M35.4,29.32c.56,0,.2,1.13,0,1.31.44.21.45.79-.08.83.59.53-.17.71-.61.6v.13l1,.08c.2.26-.26.45-.31.74-.08.51-.59.07-.77.38l.72.17.16-.35a.54.54,0,0,1,0,.77c-.37.36.45,1-.26,2h0c-.56-.06-1.74.56-1.7-.4-.53.2-.84-.08-1.07-.57-.09.23-.14.34-.23.54-.44-1.06.73-.82.21-2.12h.35c-.11-.39-.49-.78-.09-1.12l.59.38c.14-.43-.3-.51-.6-.37l-.31-1.16,1.09.39.49-.32,0-.1a1.27,1.27,0,0,1-.86,0c-.17,0-.39.11-.46-.14-.36-1.22.15-1,1-.61l.06-.22-.52-.24c-1,.17-.86-1.17.49-.75a.67.67,0,0,0,0-.19h-.43c0-.65,1-.68,1.72-.55l.6-.59A.79.79,0,0,1,35.35,29l.06.36h-.65c0,.4-.26.17-.46.17v.09l.89.14Zm-1.73,5a1.15,1.15,0,0,0-.87,0l.77.3Zm1.53.29-.74.16v.11l.65.05Zm-1.39-1.16,0-.14c-.22.11-.55-.24-.75.28Zm.54-2.72c.38.28.48.28.81,0Z"/><path class="cls-3" d="M41.49,22.09c.88.8.26,9.43-1.31,8.08-.49,0-.51-.42-.57-.81.24-.39.77.07,1.13.13l.07-.24c-.31-.06-.61-.1-.89-.18s-.47-.88-.29-1.05.58.23.86.35l.07-.23c-.78-.26-1.13-.73-1-1.4l.78.52.19-.21c-.73-.28-1.32-.7-1-1.6l.89.52.17-.23c-.61-.24-1.25-.46-1.06-1.41l.65.42c.14-.18,0-.45-.27-.5C38.89,23.89,41.13,22.63,41.49,22.09Z"/><path class="cls-3" d="M29,33.91c-.05-.29-.29-.54-.18-.84l.82.27,0-.26C29,33,28.31,32.8,28.57,32l1.36.51v-.26l-.58-.2,0,0H29c0-.48.34-1.05.88-.75,0-.56.8-.91,1.35-.64l.53-.49c.23.72,0,1.32-.72,1.16v-.09l-.32.39h.74c.57-.73.47.78-.33.62-.15,0-.33.1-.59.2a3,3,0,0,0,1,.11l.2-.3c.28.42,0,.74-.08,1.08h-.75v0l-.5.1a1,1,0,0,0,1.23-.13l.33.12V32.12h.16v2.12H32l-.1-.56c-.42.29-.06.6-.06,1,.06,1.5-1.87-.08-2.63-.16-.72-.37-.49-1,.17-.33L30,34l-.08-.2Zm2.47.55,0-.12c-.09,0-.26,0-.26,0-.07.37-.42.23-.64.33C31,35,31.2,34.57,31.49,34.46Z"/><path class="cls-3" d="M26,33.22c.35-.47,2.3-1,1.78.05-.05.19.26.66-.08.66-.32-.17-.06-.62-.56-.34S26.41,33.33,26,33.22Z"/><path class="cls-3" d="M39.75,30.22c.75.38,1.3.83.26,1.28C39.72,31.47,39.63,30.5,39.75,30.22Z"/><path class="cls-3" d="M39.42,29.06l.17,4.24h-.17Z"/><path class="cls-3" d="M34,28.19c.46-.27.72-.74,1.24-.43-.2.48-.67.2-1,.51C34.23,28.29,34.14,28.24,34,28.19Z"/><path class="cls-3" d="M27.93,33.93,28,32.52h.16a2.43,2.43,0,0,1-.08,1.41Z"/><path class="cls-3" d="M36.08,29v1.87H36V29Z"/><path class="cls-3" d="M35.17,36l.32.08.16-.55v.9C35,36.4,35,36.35,35.17,36Z"/><path class="cls-3" d="M28.35,32.78a.72.72,0,0,1-.07,1.1Z"/><path class="cls-3" d="M40.35,31.92c-.43.4-.43.13-.69-.16C39.91,31.46,40,31.76,40.35,31.92Z"/><path class="cls-3" d="M35.1,27.41l.43-.23c.2.32-.13.31-.34.43Z"/><path class="cls-3" d="M35.76,32.38l.05-.65h.12v.65Z"/><path class="cls-3" d="M38.63,24.75c.37-.52.62-.3.17.14Z"/><path class="cls-3" d="M12.75,35.8l.38,0V32.55l.18,0c0,1.55.48,1,1.69.94-.34-.63-1.34.42-1.28-.66.19,0,.34,0,.52-.08a.81.81,0,0,1-.56-.95c.42,0,.72.39,1.09.24a1.32,1.32,0,0,1-1.06-1.81,2.32,2.32,0,0,0,1.2.29c-.16-.29-.62.06-.63-.43-.59.43-.79-.89-.62-1.25,1,.43,1,.43,1.09.22a1.25,1.25,0,0,1-1.23-1.61c.36.14.71.31,1.06.46l.05-.22c-.49-.2-1.62-.45-1.05-1.13-.64-1.35.28-.73,1-.27l.08-.27c-1.22-.11-2-1.87-.24-1.52V24.2l-.36.07-.08-.1a12.28,12.28,0,0,1,1.84-1.68.77.77,0,0,1-.66,1.12c.15.25.15.25.38.13.77-.38.45,1.59-.5,1.14L15,25c.47.23,1.15-.18.91.6.19.84,0,1-.75,1.2.36.08,1-.25.93.35s.1,1.09-.7,1.3c.47.07.84-.32.81.37.18,1-.34.46-.78,1,.45,0,.86-.07.86.48.15.81-.68.68-1.23,1,.23.14.54,0,.77-.09.72-.47.82.85.3,1a4.8,4.8,0,0,1-.77.18v.1l1.12-.11c-.21.62-.67.57-1.15.5v.15a2.59,2.59,0,0,0,.88.1l.19-.28c.23.52-.05.9-.18,1.3a4,4,0,0,0-.7-.05v.11l.45.16.24-.23.44.06c-.22.38-.4.72-.59,1.05h-.67v.1c.23.08.47.24.65-.11l.41,0s0,0,.1-.14l.09.29.13-.43A5.22,5.22,0,0,1,17,37.34c.35.06.7,1.57.56,2a3.79,3.79,0,0,1,.56,2c-1.46,0-2.8-.9-4-1.67a2.86,2.86,0,0,1-.31-1.77,4.22,4.22,0,0,0,.1-1.56,1.06,1.06,0,0,0,0-.8s.18-.18.32-.31a.66.66,0,0,1-.37-.49c.25-.14.52,0,.79-.09l-1.3-.58v.83c.5.1.41.36.33.74a14.6,14.6,0,0,0-.14,3.31h-.13l-.1-1.62h-.08v1.4l-.12,0L13,38.34c-.19.23-.26.21-.56-.25l.61-.13v-.35c-.9.37-.74.59-1.52-.32a3.36,3.36,0,0,1-.38-.73c-.34,0-.9-.54-1-1.07l1.22.16c0-.75-.66.15-.93-.25s-.71-.9-.13-1c.34,0,.68.32,1,0v-.12l-1,.07-.33-1-.09.29H9.77v-.75l1,.49,0-.21c-.56-.52-.79-.21-.86-1.16l.24,0c.34.41.74.2,1.13.07-.15-.17-.5,0-.59,0-.16-.26-.37-.09-.55-.08-.31-.89-.7-1.49.6-1l.09-.23a1,1,0,0,1-1-1c0-.57.77,0,1.09.07v-.36c-.27.06-.57-.21-.83.06-.13-.58-.44-1-.25-1.63l.27.39.6-.06c-.59-.28-.75-.31-.36-.9a11.76,11.76,0,0,1,2.24-1.9c.73.09.1,1.09-.34,1.12a1,1,0,0,0-.52.19l.71.08c.91-.29.48-1,.59-1.73a12.2,12.2,0,0,1,0,4.21V26.83H13c.08.67-.43.92-.8,1.39,1.08-.61.87,0,.42.76l-1,.4c.35-.05,1.13.19,1-.41a.4.4,0,0,1,.15.78c.22.4.12.55-.34.62a1.45,1.45,0,0,1-.6.25c.56-.07,1.46.06,1.06.83-.14.4-.68.12-1,.28.47.25.79.27,1.07.05a1.07,1.07,0,0,1-.44,1.35c-.29-.17-.52.12-.79.14a5.74,5.74,0,0,1,.9.13.58.58,0,0,1,.27-.35,1,1,0,0,1-1,1.52l0,.12.69.12c.81-.74.35.62.2,1h-.64v.1C12.33,35.94,12.85,36.22,12.75,35.8Zm0,1,.33.15V36.2H13c-.09.22-.17.43-.25.64l-.89.24C12.16,37.11,12.79,37.3,12.74,36.82Zm2.34.38a1.63,1.63,0,0,0,1.26-.41v-.58C16.2,36.92,15.53,36.9,15.08,37.2Zm1.33.38-.11,0c0,.49-.46.46-.74.65C16,38.13,16.53,38.19,16.41,37.58ZM16.34,39c-.21.36-.47.49-.83.22C15.55,39.78,16.44,39.45,16.34,39Zm-1.8-2.77v.1c.22.08.43.2.66.1l0-.13Z"/><path class="cls-3" d="M13.54,32.08c-.68-.37-.24-.75,0-1.25Z"/><path class="cls-3" d="M33.53,21l0-.26c-.75-.13-1.08-.34-1.09-1.17l1.14.36,0-.27-.45-.16,0-.13c-.6.42-.72-.3-.68-.76l.81.15,0-.25c-.73-.11-1-.31-1-1.11l1,.45V17.5a1.44,1.44,0,0,1-1.09-.76c.41-.11,1,0,1.12-.22a3.24,3.24,0,0,1-.91-.19c-.3-.43-.21-.86.47-.67.16-.43-.43-.36-.61-.4a5,5,0,0,1-.2-.69l.11-.06.66.27.12-.35c-1,.17-1.49-1.39-.28-.75.1-.8-.94.07-.71-1l.42.07c-.24-.41-.68-.75-.4-1.3l.32.17c.26-.24,0-.38-.14-.44-.65-.41.3-.59-.41-1.37-.24.42.21.83-.31,1.05-.07,0-.09.16-.16.28l.36,0c.13.43.13.43-.61.92,0-.65-1.73-4.71-.47-4C34.89,9.21,38,12.88,40,16.61c.28.87,1.07,2,.66,2.88-.48.47-1.27,1.72-1.32.31h-.15c-.12.45.29,1.05-.25,1.29-.61.63-1.17,1.31-1.87,2L37,22.84a.66.66,0,0,1-.74-.92c.32-.15.65.31.94,0v-.13c-.48,0-.89-.08-1-.62s.27-.53.69-.26l.15-.32c-.61-.08-1.1-.15-.76-1l.56.33.08,0-.27-.48c-.36.08-.57-.27-.42-.81l.6.07c-.58-.21-1.17-1.81-.09-1.13.42-.57-.85-.09-.76-1.56l.43.31c.26-.36-.88-.86-.28-1.24-.15-.42-.21-.83-.35-1.26-.34.9.36,1.15-.5,1.81l.05.09.42-.18c0,.59,0,.9-.63,1.07l.06.15.56-.1c.07,1.28-.09.8-1,1.27.32.09.61.21.89-.16.33.41-.1,1.41-.62,1.4l0-.09-.23.36h.66l.2-.32a1.56,1.56,0,0,1-.07,1.2c-.17.52-.66.34-.88.68l.64,0a.8.8,0,0,1,.33-.35c.18.29.23.75-.14.93.26.69-.54.68-1,.78v.1h.85l.19-.26c.3.38.24.88-.12,1,.22.65-.51.34-.87.52.28,0,.54.37.84,0,.15-.12.3.08.24.21a25.22,25.22,0,0,1-2.45,2.27c-.63.61-.75-.39-.81-.91l1,.37,0-.31c-.82-.06-1.13-.51-.9-1.29l.79.39.19-.25c-.6-.17-1.18-.34-1-1.18l1.26.44.08-.4c-.22.06-.46.26-.54,0-.89-.05-.89-.71-.83-1.45l1,.43.08-.08a2.28,2.28,0,0,0-.52-.44c-.58.14-.64-.56-.46-1Z"/><path class="cls-3" d="M32.17,22V16.47A20.37,20.37,0,0,1,32.17,22Z"/><path class="cls-3" d="M35.88,23.85V19.92H36c0,1.32.08,2.63,0,3.94Z"/><path class="cls-3" d="M31.9,12c-.11.27-.21,1.27-.55.79S31.1,12.2,31.9,12Z"/><path class="cls-3" d="M36.22,23.65v-.86l.55.44Z"/><path class="cls-3" d="M32,15.26v1A.7.7,0,0,1,32,15.26Z"/><path class="cls-3" d="M31.71,15.09c-.18-.38-.16-.73.06-.89C32,14.6,32,14.88,31.71,15.09Z"/><path class="cls-3" d="M31.85,13.06l0,.58-.12,0c-.34-.26-.26-.44,0-.7Z"/><path class="cls-3" d="M24.64,14.44l.89.37.06-.33c-.19-.05-.53.21-.49-.3-.69.41-.49-.73-.56-1.09l.09-.1.6.3.12-.33a3.19,3.19,0,0,1-.73-.3c-.36-.63,0-1.28.61-.51l.16-.37c-.79-.23-.93-.56-.92-1.41l.73.48.06-.38c-.19,0-.47,0-.29-.27-.54.1-.68-.45-.47-.88l.35.19c.26-.33-.14-.46-.24-.51-.44-.32-.15-.9-.26-1.35H24.2c-.23,1.12.27,1.57-.54,2.46l.43-.06c.22.67,0,1.32-.37,1.29l-.37.51.7-.28c.14.34-.09,2.07-.71,1.4l-.28.29.77.1.17-.28c.24.5.15,1.61-.48,1.62-.56-.28-1.82-.23-2-.9-.24-.43-1.19-.24-.73-1l.66.43.07-.3c-.62.05-1.24-1.31-.47-1.07a.41.41,0,0,0,.29,0c-.34-.3-.81-.46-.67-1.07l.31,0c0-.27-.7-.85-.08-1l-.29-.73c0,.4-.36.74-.16,1.19s-.32.56-.6.76l.05.11.56-.15c0,.64-.07.91-.76,1,.54.35.88.23.56.94,0,.08-.12.19-.19.19-1,.14-1.81-.46-2.71-.71-.55-.12-.55-.51-.71-1-.23.5,0,.76-.7.53-.51-.32-4.44-.6-3.52-1.35C16.1,7.05,22,5.87,26.88,6.8c.9.39.93,2.27,1.18,3.13,0,.21-.38.43-.57.6H28c.17.61,0,1-.71,1.1l.09.13.71-.13c.17.7-.22.78-.84.78v.11l.76.08c.25.65-.31.67-.69.88,1.3.08.75.95-.24.94l.51.25.4-.25.07.08c-.49.67.49.57-.6,1.1l0,.11.52-.14c.13.62-.51.46-.71.76.23.08.82-.08.7.33-.07.59-1.84-.47-2-.78-.22.06-.47.12-.62-.2C24.78,15.56,24.41,15.24,24.64,14.44Z"/><path class="cls-3" d="M29.46,16.78l.16-.37A3.18,3.18,0,0,1,30.07,18c-.43,0-.54-.12-.58-.62-.68-.11-.93-.4-.84-1.06Z"/><path class="cls-3" d="M29.32,15.46c.45-.07.37,1.14,0,1-.23-.45-.5.13-.74-.81.2-.27.6.16.79-.18Z"/><path class="cls-3" d="M28.84,13.85c-.11-.28-.57-.37-.27-.74A1,1,0,0,1,29,14.53C28.79,14.38,28.33,14,28.84,13.85Z"/><path class="cls-3" d="M29.33,15.45c-.53.09-.84-.58-.77-1C28.85,14.71,29.65,15,29.33,15.45Z"/><path class="cls-3" d="M28.77,13.05c-.11-.28-.4-.52-.2-.83.38.07.29.49.39.77Z"/><path class="cls-3" d="M28.34,16.92l-.11-1.21h.13l.16,1.2Z"/><path class="cls-3" d="M28.59,12l-.27-.7.13-.05c.26.16.27.43.29.7Z"/><path class="cls-3" d="M27.76,38.48A14.42,14.42,0,0,0,28,36.11c.93.22.19,2.33.75,3.15l.26-.11-.15-.77.87.27c-.41-.39-1-.55-.91-1.19a3.59,3.59,0,0,1,.73.12l.06-.09c-.06-.05-.14-.17-.17-.16-.62.21-.53-.52-.68-1a12.07,12.07,0,0,1,2.86,1.11,1,1,0,0,1-1.38.7c.51.34,1.11.32,1.36-.31.35.48-.34,1.48.45,1.37.08,0,.19.14.28.22L32.6,39c-.12-.43-.11-.44.47-.52-.23-.24-.78-.21-.55-.73.65.48,3.11,0,2.76,1.09-.1.52-.37.41-.81.37.43.66-1.26,1.35-1.74,1.45a3.86,3.86,0,0,1-2.39,1,15.11,15.11,0,0,1-9.33.8c-1-.5-.78-2.06-1.22-3l.64-.14-.21-.48-.1.22H20V38c-.11.36-.59.53-.51.09.13-.2.13-.31-.13-.4s-.43-1-.27-1.1a.7.7,0,0,1,.8.23l.47,0c.06.38-.13.35-.45.38,0,.12-.41.27,0,.5l.19-.32.08.47c.54-.81.27-2.08.34-3.11-.37.26-.14.57-.53.72,0,.19-.14.7-.35.81-.61.31-.91-.46-.68-.92-.67-1.19-.72-2.93-1-4.33.3.1.57.16.48.53a.93.93,0,0,1,1.09.48l-.73.35,0,.06.7-.07v-.35c1,.08.23,1.5-.52,1.43l.33.49.46-.67.25.24.13-.76h.08c.09.42.06.89.17,1.28.59.2.28.67.28,1,0,.56,0,1.12-.07,1.75l.32-.2c-.18-.34-.31-.66-.06-1,0-.33-.22-.77,0-1.09.31-.08.49.49.82.09-.85-.46-.92-.54-.76-1l1,.26.06-.12a12.39,12.39,0,0,1-1.17-.54c-.55.26-.61-.5-.09-.51.95.06,1.6.94,2.56,1.1.05,0,.13.11.12.13-.18.43-.36.87-.92.71l-.48.33c.05,0,.17.07.23,0,.27-.15.67.06.87-.3.49-.17.41.81.19,1s-.7,0-1,0a1.19,1.19,0,0,0,1.15.22c-.12.37.15,1-.39.89l-.14.36c.23,0,.59-.2.56.28s-.13.39-.74.33l0,.24c.22.08.53-.22.63.18a1,1,0,0,1-.38,1.11l.93.06c.26-.83-.22-1.86.18-2.65.42.71-.11,2.1.64,2.36-.16-.29-.4-.53-.08-.82l.89.3.11-.3h-1a6,6,0,0,1-.33-.93l.13-.09.64.31.13-.2c-.33-.26-.95-.19-.88-.71s.79-.27,1.2-.34c0,0,0-.08,0-.2-.46-.08-1.46.41-1.19-.44.18-.05.36,0,.48-.14-.43-.17-.85-.38-.63-1,.45,0,.87.4,1.32.51s1.34,0,1.28.76c1.57-.07.62,0,.88,1,0,.31,0,1.06-.52,1-.11,0-.23.18-.34.28l0,.11.78-.28a4.46,4.46,0,0,1-.19,1.25C28.1,39.59,27.82,38.76,27.76,38.48Zm-6.71-.86.78.33c0-.09,0-.24,0-.24-.25,0-.48-.34-.76-.08l-.23-.58c-.2.4.3.86-.31,1.05l.12.71h.06l.06-.21c.4.4,0,.63-.26.95l.66-.15a1.81,1.81,0,0,1-.18-.66c.06-.43.48,0,.67-.23C21.21,38.47,20.58,38,21.05,37.62Zm.24-.79.71.26C22,36.7,21.72,36.59,21.29,36.83ZM20.1,34.18l-.23.68C20.18,34.87,20.19,34.85,20.1,34.18Z"/><path class="cls-3" d="M23.82,34.17l.1,1.41.16-.45a1.7,1.7,0,0,1,0,1.61l-.11-.5h-.08c-.15.9.22,2.3-.24,3-.24-.07-.16-.4-.17-.6.06-1.49,0-3,.12-4.48Z"/><path class="cls-3" d="M31.92,37.49l.16.38.13-.26h.12l.1,1.25-.08,0-.11-.57h-.06l-.06.31C31.71,38.54,31.67,38.35,31.92,37.49Z"/><path class="cls-3" d="M9.83,23.35l.65.18c0-.4-.41-.26-.59-.46s-.37-.64.11-.75c-.28-.15-.12-.49-.21-.75s-.14-.59.12-.83l-.24-.56c-.08.3-.15.6-.24,1,.42.51-.31.49-.48,1,1-.42.51,1-.13,1.23l.56,0c.3.74-.26,1.09-.9,1.26.35.19.6-.08.89-.19.4.65-2,2.53-2.55,3.09C5.14,22.77,7.47,16.72,10.68,13c1.14-.91,3.45.6,4.85.71s1.33.87.21,1.43l.06.12.76-.41c.36.87-.23,1.13-1,1.31.29.4.61-.1,1-.11.19,1.2-.22,1.44-1.35,1.56l.9.14.4-.35a.75.75,0,0,1-.35,1l.28.09c0,.6-.6.34-.82.69l.75-.06c.32.77-.92.94-1.33,1.34-.23.84-2.12.32-1.54-.49l-.16-.34.05-.1.83.23v-.2c-.8-.16-1-.44-.94-1.26l.78.25.05-.26c-.82.11-1.25-1.33-.24-.86l.08-.08c-.4-.59-.73,0-.73-.9l.49-.06a1.42,1.42,0,0,1-.51-1.5h-.11c0,.52-.25,1-.06,1.54,0,.22-.34.43-.55.5.36.25.68,0,.45.6.11.76,0,.45-.57.83l.06.13.6-.15c.12.81-.13,1.05-.92,1.32L13,19.6c-.07.43.13.95-.46,1.16.12.22.52-.12.51.35,0,.65-.59.52-1,.79a1.46,1.46,0,0,1,.76.22c-.55.5-3.08,3.27-3.11,1.28Z"/><path class="cls-3" d="M19.42,15.82a1.36,1.36,0,0,1,.82.1,1.06,1.06,0,0,1-1.1,1.24v.09l.71.07c-.29.32-1.94,1.79-1.88.68-.15,0-.4.22-.45-.14-.73.24-.64-.63-.7-1.11.32-.07.6.09.93,0-.45-.09-.9-.28-.86-.82.07-.29-.17-.43-.09-.78l.94.56.09-.26a1.34,1.34,0,0,1-1.12-1.17l.13-.12,3.31,1.14v.09l-.74.32Z"/><path class="cls-3" d="M16.89,17.92c.65.27,1.8.54.57,1.06-.62.51-.58-.67-.69-1Z"/><path class="cls-3" d="M22.13,16.05c-.45.48-1.34.79-1.42-.11C20.57,15.62,22,15.92,22.13,16.05Z"/><path class="cls-3" d="M13.24,21.2c.33-.46.51-.17.87,0C13.73,21.53,13.63,21.82,13.24,21.2Z"/><path class="cls-3" d="M37.24,35.91l-.12.23-.72-.59a.59.59,0,0,0,.09.84l-.06.07c-.48-.25-.12-1.11-.14-1.6C36.36,35.43,36.77,35.65,37.24,35.91Z"/><path class="cls-3" d="M35.4,29.32l-.21.41-.89-.14V29.5c.2,0,.5.23.46-.17h.64Z"/><path class="cls-3" d="M33.67,34.34l-.1.35-.77-.3A1.15,1.15,0,0,1,33.67,34.34Z"/><path class="cls-3" d="M35.2,34.63l-.08.32-.65-.05v-.11Z"/><path class="cls-3" d="M33.81,33.47l-.78.14c.2-.52.53-.17.75-.28Z"/><path class="cls-3" d="M32.64,32.28c.3-.14.74-.06.6.37l-.59-.38Z"/><path class="cls-3" d="M34.35,30.75h.81C34.83,31,34.73,31,34.35,30.75Z"/><path class="cls-3" d="M31.58,33.25a1,1,0,0,1-1.23.13l.5-.1v0h.74Z"/><path class="cls-3" d="M29,33.91l.89-.12L30,34l-.61.18L29,33.9Z"/><path class="cls-3" d="M31.49,34.46c-.29.11-.49.52-.92.21.22-.1.57,0,.64-.33,0,0,.17,0,.26,0Z"/><path class="cls-3" d="M15.08,37.2c.45-.3,1.12-.28,1.26-1v.58A1.63,1.63,0,0,1,15.08,37.2Z"/><path class="cls-3" d="M16.41,37.58c.12.61-.42.55-.85.61.28-.19.7-.16.74-.65Z"/><path class="cls-3" d="M16.34,39c.1.48-.79.81-.83.22C15.87,39.46,16.13,39.33,16.34,39Z"/><path class="cls-3" d="M12.75,36.83l.25-.64h.07V37l-.33-.15Z"/><path class="cls-3" d="M12.65,29c.15.6-.63.36-1,.41l1-.4Z"/><path class="cls-3" d="M12.74,36.82c0,.48-.58.29-.88.25l.89-.24Z"/><path class="cls-3" d="M14.54,36.2l.64.07,0,.13c-.23.1-.44,0-.66-.1Z"/><path class="cls-3" d="M12.75,35.8c.1.42-.42.14-.64.11v-.1h.63Z"/><path class="cls-3" d="M16.17,34.2l-.24.23-.45-.16v-.11C15.7,34.15,16,34.19,16.17,34.2Z"/><path class="cls-3" d="M16,35.3c-.18.35-.42.19-.65.11v-.1H16Z"/><path class="cls-3" d="M21.05,37.63c-.47.37.16.84.58.87-.19.26-.61-.2-.67.23a1.81,1.81,0,0,0,.18.66l-.66.15c.21-.32.66-.55.26-.95l-.06.21h-.06l-.12-.71c.61-.19.11-.65.31-1.05l.23.58Z"/><path class="cls-3" d="M24.73,38.34h1l-.11.3-.89-.3Z"/><path class="cls-3" d="M21.29,36.83c.43-.24.69-.13.71.26Z"/><path class="cls-3" d="M21,37.63c.28-.26.51,0,.76.08,0,0,0,.15,0,.24l-.78-.33Z"/><path class="cls-3" d="M19.59,32.09v.35l-.7.07,0-.06.73-.35Z"/><path class="cls-3" d="M27.76,38.48c.06.28.34,1.11-.19.84C27.64,39,27.7,38.76,27.76,38.48Z"/><path class="cls-3" d="M20.1,34.18c.09.67.08.69-.23.68Z"/></g></g></svg>