<?xml version="1.0" encoding="utf-8"?>
<!-- Generator: Adobe Illustrator 25.4.1, SVG Export Plug-In . SVG Version: 6.00 Build 0)  -->
<svg version="1.1" id="Layer_1" xmlns="http://www.w3.org/2000/svg" xmlns:xlink="http://www.w3.org/1999/xlink" x="0px" y="0px"
	 viewBox="0 0 48 47" style="enable-background:new 0 0 48 47;" xml:space="preserve">
<style type="text/css">
	.st0{clip-path:url(#SVGID_00000096050902646392858420000015639801200084897935_);}
	.st1{fill:#FE705A;}
	.st2{fill:#FFFFFF;}
</style>
<g>
	<defs>
		<rect id="SVGID_1_" y="-1" width="48" height="48"/>
	</defs>
	<clipPath id="SVGID_00000106137743560634636160000014505136409450288053_">
		<use xlink:href="#SVGID_1_"  style="overflow:visible;"/>
	</clipPath>
	<g style="clip-path:url(#SVGID_00000106137743560634636160000014505136409450288053_);">
		<path class="st1" d="M-86.4-27.7c0-6.2,3.8-11.8,9.9-13.3c10.1-2.5,25.4-4.5,32.9,3c6.3,6.3,5.9,18.2,4.1,27.8
			C-41.3-1.1-49.8,4.7-59.1,4.7h-19.8c-4.1,0-7.5-3.4-7.5-7.5V-27.7z"/>
		<path class="st2" d="M-56.5-10.4c0,0,0.1-0.3,0.1-0.8c0.1-0.5,0.1-1.2,0.2-1.9c0.1-0.7,0.1-1.4,0.2-2.2c0-0.8,0.1-1.4,0.1-1.9
			c0-0.3,0-0.7,0-1.2c0-0.5,0-1.1,0-1.7c0-0.6,0-1.3,0-2c0-0.7,0-1.3,0-1.9c0-0.6,0-1.2,0-1.6c0-0.5,0-0.8,0-1c0-0.1,0-0.2-0.1-0.5
			c0-0.2-0.1-0.4-0.2-0.7c0-0.2-0.1-0.5-0.2-0.6c-0.1-0.2-0.1-0.4-0.2-0.5c-0.8-0.1-1.5,0-2.3,0.1c-0.8,0.2-1.5,0.3-2.3,0.5
			c-0.8,0.2-1.5,0.4-2.3,0.5c-0.7,0.1-1.4,0.1-2.1,0c-0.2-0.4,0-0.7,0.5-1.1c0.5-0.4,1.3-0.7,2.2-1c1-0.3,2.1-0.5,3.4-0.7
			c1.3-0.2,2.6-0.3,4-0.3c1.4,0,2.7,0.2,4.1,0.5c1.3,0.3,2.5,0.7,3.6,1.3c1.1,0.6,1.9,1.3,2.5,2.3c0.6,0.9,1,2.1,1,3.5
			c0,0.5-0.1,1-0.3,1.6c-0.2,0.6-0.4,1.1-0.7,1.7c-0.3,0.6-0.6,1.1-0.9,1.6c-0.3,0.5-0.6,0.9-1,1.3c-0.2,0.2-0.4,0.4-0.7,0.8
			c-0.3,0.3-0.7,0.7-1.2,1.2c-0.4,0.5-0.9,0.9-1.4,1.4c-0.5,0.5-1,0.9-1.4,1.4c-0.4,0.4-0.8,0.8-1.2,1.2c-0.3,0.3-0.6,0.6-0.8,0.8
			c-0.1,0.5-0.2,1-0.3,1.4c-0.1,0.4-0.3,0.8-0.5,1c-0.2,0.2-0.5,0.3-0.8,0.3c-0.3,0-0.7-0.2-1.2-0.5c-0.5,0.3-1,0.8-1.5,1.4
			c-0.5,0.6-1.1,1.2-1.6,1.7c-0.6,0.6-1.1,1-1.7,1.3s-1.2,0.4-1.8,0.1v-1.1L-56.5-10.4z M-53.7-12.7c1.4-0.6,2.5-1.4,3.6-2.4
			c1.1-1.1,1.9-2.3,2.5-3.6c0.6-1.3,1-2.6,1.1-3.9c0.1-1.3,0-2.5-0.5-3.5c-0.5-1-1.2-1.8-2.3-2.3c-1.1-0.6-2.5-0.7-4.4-0.5V-12.7z"
			/>
		<path class="st2" d="M-76.2-8.4c0-0.4-0.1-1-0.1-1.7c0-0.8-0.1-1.7-0.1-2.7c0-1-0.1-2.1-0.1-3.2c0-1.1-0.1-2.1-0.1-3.1
			c0-1,0-1.9-0.1-2.6c0-0.8,0-1.4,0-1.8c0-0.1,0-0.3,0-0.6c0-0.3,0-0.7,0-1c0-0.4,0-0.7,0-1c0-0.3,0-0.5,0-0.7
			c-0.3,0.1-0.6,0.4-0.9,0.7c-0.3,0.3-0.7,0.7-1.1,1.1c-0.4,0.4-0.8,0.7-1.3,1c-0.4,0.3-0.8,0.5-1.2,0.6c-0.5-0.3-0.7-0.7-0.7-1.1
			c0-0.5,0.3-0.9,0.7-1.4c0.5-0.5,1-1,1.8-1.6c0.8-0.5,1.6-1.1,2.4-1.5c0.9-0.5,1.8-0.9,2.8-1.4c0.9-0.4,1.8-0.7,2.7-1
			c0.9-0.3,1.6-0.5,2.3-0.5c0.7-0.1,1.2,0,1.5,0.1c0.6,0.6,0.9,1.4,0.9,2.3c0,0.9-0.2,1.9-0.6,3c-0.4,1.1-0.9,2.1-1.5,3.3
			c-0.6,1.1-1.2,2.2-1.8,3.3c-0.6,1.1-1.1,2.1-1.5,3c-0.4,0.9-0.6,1.7-0.6,2.4c0,0.7,0.3,1.2,0.9,1.5c0.6,0.3,1.6,0.4,3.1,0.2
			c0.7-0.2,1.5-0.4,2.3-0.8c0.8-0.4,1.6-0.8,2.3-1.3c0.8-0.5,1.4-1,2.1-1.5c0.7-0.5,1.2-1,1.7-1.4c0.8,0.2,1.2,0.5,1.3,0.8
			c0.1,0.4-0.1,0.8-0.5,1.2c-0.4,0.5-0.9,0.9-1.7,1.4c-0.8,0.5-1.6,1-2.5,1.4c-0.9,0.5-1.9,0.9-3,1.2c-1,0.4-2,0.6-2.9,0.8
			c-0.9,0.2-1.8,0.3-2.5,0.3c-0.7,0-1.3-0.2-1.6-0.5c0,0.1,0,0.4,0,0.7c0,0.3-0.1,0.7-0.1,1c-0.1,0.3-0.2,0.7-0.3,1
			c-0.2,0.3-0.4,0.5-0.6,0.6c-0.2,0.1-0.5,0.1-0.7-0.1C-76-8.1-76.1-8.2-76.2-8.4z M-74.5-15.5l5.9-13.2c-0.2-0.5-0.4-0.8-0.8-1
			c-0.3-0.2-0.7-0.3-1.2-0.3c-0.5,0-0.9,0.1-1.4,0.3c-0.5,0.2-0.9,0.4-1.3,0.7c-0.4,0.3-0.7,0.5-1,0.9c-0.3,0.3-0.4,0.6-0.4,0.8
			L-74.5-15.5z"/>
	</g>
</g>
</svg>
