<svg xmlns="http://www.w3.org/2000/svg" viewBox="0 0 153.91 150.07"><defs><style>.cls-1{fill:#fe705a;}</style></defs><g id="Layer_2" data-name="Layer 2"><g id="Layer_1-2" data-name="Layer 1"><path class="cls-1" d="M67.53,66.89c-.64-2-1.22-3.91-1.86-5.9s-1.22-3.85-1.73-5.71-1-3.46-1.41-5H62.4a78.85,78.85,0,0,1-2.18,8.27c-1,3.08-1.92,6.29-2.95,9.49s-1.86,6.29-2.82,9H70.74c-.39-1.35-.9-3-1.48-4.62s-1.15-3.59-1.73-5.51ZM126.66,0H27.26A27.23,27.23,0,0,0,0,27.26v95.55a27.23,27.23,0,0,0,27.26,27.26h99.4a27.23,27.23,0,0,0,27.25-27.26V27.26A27.23,27.23,0,0,0,126.66,0ZM94.27,106H80.86a1,1,0,0,1-1-.71L74.58,90H50.73l-4.88,15.07a1.13,1.13,0,0,1-1.21.91H32.58c-.71,0-.9-.4-.71-1.16L52.52,45.4c.2-.64.39-1.34.64-2.11a22.16,22.16,0,0,0,.39-4.17.65.65,0,0,1,.51-.71H70.67c.52,0,.77.2.84.52L94.91,105c.2.7,0,1-.64,1Zm21.81-1c0,.7-.25,1-.83,1H102.67a.9.9,0,0,1-1-1V55.67c0-.65.26-.9.84-.9h12.7c.58,0,.83.32.83.9Zm-1.34-57.91a7.57,7.57,0,0,1-5.85,2.24,8,8,0,0,1-5.71-2.24,8.38,8.38,0,0,1-2.18-5.9,7.58,7.58,0,0,1,2.3-5.71A8.26,8.26,0,0,1,109,33.28a7.67,7.67,0,0,1,5.84,2.25A8.12,8.12,0,0,1,117,41.24a8.18,8.18,0,0,1-2.24,5.9Z"/></g></g></svg>