<svg xmlns="http://www.w3.org/2000/svg" viewBox="0 0 247.5 247.44"><defs><style>.cls-1{fill:#fe705a;}</style></defs><g id="Layer_2" data-name="Layer 2"><g id="Capa_1" data-name="Capa 1"><path class="cls-1" d="M83.94,70.56a51.34,51.34,0,0,0-12.72,1.23V112a48.29,48.29,0,0,0,10.3.79c16.39,0,26.51-8.29,26.51-22.25C108,78.05,99.32,70.56,83.94,70.56Z"/><path class="cls-1" d="M232.35,0H15.16A15.14,15.14,0,0,0,0,15.12V232.3a15.15,15.15,0,0,0,15.16,15.14H232.35A15.15,15.15,0,0,0,247.5,232.3V15.13A15.14,15.14,0,0,0,232.35,0ZM126,122.16c-10.5,9.91-26.1,14.36-44.28,14.36a76.56,76.56,0,0,1-10.52-.61v48.77H40.65V50.14c9.5-1.6,22.85-2.82,41.68-2.82,19,0,32.57,3.63,41.65,10.92,8.74,6.89,14.6,18.22,14.6,31.57S134.11,114.45,126,122.16Zm46.06,64.53c-13,0-24.5-2.81-32-6.87l5.45-22c5.67,3.42,17.41,7.47,26.54,7.47,9.28,0,13.13-3.23,13.13-8.3s-3-7.47-14.55-11.32c-20.43-6.87-28.33-18-28.14-29.74,0-18.39,15.79-32.39,40.27-32.39,11.53,0,21.85,2.65,27.91,5.67l-5.45,21.25a48.38,48.38,0,0,0-21.45-5.65c-7.47,0-11.71,3-11.71,8.09,0,4.64,3.81,7.07,16,11.33,18.81,6.46,26.72,16,26.9,30.52C214.94,173.13,200.35,186.69,172.07,186.69Z"/></g></g></svg>